<?xml version="1.0" encoding="UTF-8" standalone="no"?>
<!-- Created with Inkscape (http://www.inkscape.org/) -->

<svg
   width="256mm"
   height="256mm"
   viewBox="0 0 256 256"
   version="1.1"
   id="svg1"
   inkscape:version="1.4 (e7c3feb1, 2024-10-09)"
   xmlns:inkscape="http://www.inkscape.org/namespaces/inkscape"
   xmlns:sodipodi="http://sodipodi.sourceforge.net/DTD/sodipodi-0.dtd"
   xmlns="http://www.w3.org/2000/svg"
   xmlns:svg="http://www.w3.org/2000/svg">
  <sodipodi:namedview
     id="namedview1"
     pagecolor="#ffffff"
     bordercolor="#666666"
     borderopacity="1.0"
     inkscape:showpageshadow="2"
     inkscape:pageopacity="0.0"
     inkscape:pagecheckerboard="0"
     inkscape:deskcolor="#d1d1d1"
     inkscape:document-units="mm"
     inkscape:zoom="0.24088799"
     inkscape:cx="406.82808"
     inkscape:cy="641.37692"
     inkscape:window-width="1488"
     inkscape:window-height="714"
     inkscape:window-x="0"
     inkscape:window-y="34"
     inkscape:window-maximized="0"
     inkscape:current-layer="layer1"
     showguides="false" />
  <defs
     id="defs1" />
  <g
     inkscape:label="Layer 1"
     inkscape:groupmode="layer"
     id="layer1"
     transform="translate(-13.053429,-158.16389)">
    <rect
       style="fill:#000000;fill-opacity:1;stroke:#000000;stroke-width:2.64866;stroke-linecap:round"
       id="rect6"
       width="253.35133"
       height="253.35133"
       x="14.377761"
       y="159.48822" />
    <path
       d="m 141.16991,372.0138 c 44.03157,0 79.21021,-35.17865 79.21021,-79.21021 0,-44.03156 -35.17864,-79.44318 -79.21021,-79.44318 -44.031553,0 -79.443177,35.41162 -79.443177,79.44318 0,44.03156 35.411624,79.21021 79.443177,79.21021 z m 0,-6.98914 c -39.6051,0 -72.221069,-32.61597 -72.221069,-72.22107 0,-39.60511 32.615969,-72.22108 72.221069,-72.22108 39.60511,0 72.22108,32.61597 72.22108,72.22108 0,39.6051 -32.61597,72.22107 -72.22108,72.22107 z m 0,-63.60113 c 4.65943,0 8.61994,-3.96052 8.61994,-8.61994 0,-3.2616 -1.86377,-6.05725 -4.42645,-7.45508 l 0.69891,-32.84893 -4.65942,-4.65943 -4.42645,4.65943 0.6989,32.38299 c -3.02861,1.39783 -5.12536,4.42645 -5.12536,7.92102 0,4.65942 3.96051,8.61994 8.61993,8.61994 z m -16.30798,-89.92689 c 4.8924,-0.93188 10.25074,-1.6308 16.30798,-1.6308 7.22211,0 10.94966,0.69892 16.07502,1.6308 v -6.5232 c 0,-2.56267 -2.09674,-4.65942 -4.65942,-4.65942 h -23.06416 c -2.56268,0 -4.65942,2.09675 -4.65942,4.65942 z m 79.67616,12.34748 c -1.86377,-2.09675 -4.19348,-2.09675 -6.05726,-0.23298 l -4.89239,4.8924 c 4.65942,3.96051 8.15399,7.45508 11.88153,12.1145 l 5.59131,-5.35834 c 1.39783,-1.39782 1.86377,-3.02863 0,-4.89239 z m -92.48958,12.1145 c -3.49456,0.23297 -6.05725,3.02862 -6.05725,6.29022 0,3.2616 2.56269,6.05725 5.82429,6.29022 3.49456,-0.46594 6.29022,-3.02862 6.29022,-6.29022 0,-3.2616 -2.79566,-6.29022 -6.05726,-6.29022 z m -35.411619,56.84497 c 0,3.2616 2.795654,6.05725 6.057251,6.05725 3.261597,0 6.057252,-2.79565 6.290223,-5.82428 -0.232971,-3.49457 -3.028626,-6.29022 -6.290223,-6.29022 -3.261597,0 -6.057251,2.79565 -6.057251,6.05725 z m 7.921021,-29.1214 c 0,3.2616 2.795655,6.05725 6.057251,6.05725 3.261597,0 6.057252,-2.79565 6.290223,-5.82428 -0.232971,-3.49457 -3.028626,-6.29022 -6.290223,-6.29022 -3.261596,0 -6.057251,2.79565 -6.057251,6.05725 z m 85.733398,73.6189 c -3.26159,0.23298 -6.05724,2.79566 -6.05724,6.05726 0,3.26159 2.79565,6.29022 6.29022,6.05724 3.26159,0 5.82428,-2.79565 5.82428,-6.05724 0,-3.2616 -2.56269,-6.05726 -6.05726,-6.05726 z M 84.557912,322.15796 c 0,3.2616 2.795655,5.82428 6.057251,5.82428 3.261597,0 6.057252,-2.56268 6.057252,-5.82428 -0.232971,-3.49456 -2.795655,-6.29022 -6.057252,-6.29022 -3.261596,0 -6.290222,2.79566 -6.057251,6.29022 z M 185.90039,263.68219 c 0,3.2616 2.56268,6.05725 5.82428,6.05725 3.2616,0 6.29022,-2.79565 6.29022,-6.05725 -0.23297,-3.49457 -3.02862,-6.05725 -6.29022,-6.05725 -3.2616,0 -6.05725,2.56268 -5.82428,6.05725 z m -44.73048,93.65443 c 3.2616,0 6.05726,-2.79566 6.05726,-6.05725 0,-3.2616 -2.79566,-6.05726 -6.05726,-6.05726 -3.26159,0 -6.05724,2.79566 -6.05724,6.05726 0,3.26159 2.79565,6.05725 6.05724,6.05725 z m -29.35436,-7.92103 c 3.26159,0 6.05724,-2.79565 6.05724,-6.05724 0,-3.2616 -2.79565,-6.05726 -6.05724,-6.05726 -3.2616,0 -6.05726,2.79566 -6.05726,6.05726 0,3.26159 2.79566,6.05724 6.05726,6.05724 z m 73.85187,-27.25763 c 0,3.02863 2.79565,5.82428 6.05725,5.82428 3.2616,0 6.05725,-2.79565 6.05725,-6.05725 0,-3.26159 -2.79565,-6.05725 -6.05725,-6.05725 -3.2616,0 -6.05725,2.79566 -6.05725,6.29022 z m 7.92102,-29.1214 c 0,3.02863 2.79566,5.82428 6.05725,5.82428 3.26159,0 6.05725,-2.79565 6.05725,-6.05725 0,-3.2616 -2.79566,-6.05725 -6.05725,-6.05725 -3.26159,0 -6.05725,2.79565 -6.05725,6.29022 z m -23.06415,-44.73047 c 3.26159,0 6.05725,-2.79565 6.05725,-6.05725 0,-3.2616 -2.79566,-6.05725 -6.05725,-6.05725 -3.2616,0 -6.05726,2.79565 -6.05726,6.05725 0,3.2616 2.79566,6.05725 6.05726,6.05725 z m -29.35438,-7.92102 c 3.2616,0 6.05726,-2.79566 6.05726,-6.05725 0,-3.2616 -2.79566,-6.05726 -6.05726,-6.05726 -3.26159,0 -6.05724,2.79566 -6.05724,6.05726 0,3.26159 2.79565,6.05725 6.05724,6.05725 z"
       id="text6"
       style="font-size:301.806px;line-height:1;font-family:'Helvetica Neue';-inkscape-font-specification:'Helvetica Neue';text-align:center;text-anchor:middle;fill:#ffffff;stroke-width:5.82428"
       aria-label="⏱" />
    <path
       d="m 41.092079,207.15065 c 9.99796,0 17.98574,-7.98779 17.98574,-17.98575 0,-9.99796 -7.98778,-18.03865 -17.98574,-18.03865 -9.99796,0 -18.03865,8.04069 -18.03865,18.03865 0,9.99796 8.04069,17.98575 18.03865,17.98575 z m 0,-1.58698 c -8.99288,0 -16.39877,-7.4059 -16.39877,-16.39877 0,-8.99288 7.40589,-16.39877 16.39877,-16.39877 8.99287,0 16.39877,7.40589 16.39877,16.39877 0,8.99287 -7.4059,16.39877 -16.39877,16.39877 z m 0,-14.4415 c 1.05798,0 1.95727,-0.89929 1.95727,-1.95727 0,-0.74059 -0.4232,-1.37538 -1.00509,-1.69278 l 0.1587,-7.45879 -1.05798,-1.05799 -1.00509,1.05799 0.1587,7.35299 c -0.68769,0.3174 -1.16379,1.00509 -1.16379,1.79858 0,1.05798 0.89929,1.95727 1.95728,1.95727 z m -3.70295,-20.41911 c 1.11088,-0.2116 2.32757,-0.3703 3.70295,-0.3703 1.63987,0 2.48626,0.1587 3.65005,0.3703 v -1.48118 c 0,-0.58189 -0.4761,-1.05799 -1.05799,-1.05799 h -5.23703 c -0.58189,0 -1.05798,0.4761 -1.05798,1.05799 z m 18.09155,2.80366 c -0.4232,-0.4761 -0.95219,-0.4761 -1.37539,-0.0529 l -1.11088,1.11088 c 1.05798,0.89929 1.85147,1.69278 2.69786,2.75076 l 1.26959,-1.21668 c 0.31739,-0.31739 0.42319,-0.68769 0,-1.11088 z m -21.00101,2.75076 c -0.79349,0.0529 -1.37538,0.68769 -1.37538,1.42828 0,0.74059 0.58189,1.37538 1.32248,1.42828 0.79349,-0.1058 1.42828,-0.68769 1.42828,-1.42828 0,-0.74059 -0.63479,-1.42828 -1.37538,-1.42828 z m -8.04069,12.90742 c 0,0.74059 0.63479,1.37538 1.37538,1.37538 0.74059,0 1.37538,-0.63479 1.42828,-1.32248 -0.0529,-0.79349 -0.68769,-1.42828 -1.42828,-1.42828 -0.74059,0 -1.37538,0.63479 -1.37538,1.37538 z m 1.79858,-6.61241 c 0,0.74059 0.63479,1.37538 1.37538,1.37538 0.74059,0 1.37538,-0.63479 1.42828,-1.32248 -0.0529,-0.79349 -0.68769,-1.42828 -1.42828,-1.42828 -0.74059,0 -1.37538,0.63479 -1.37538,1.37538 z m 19.46692,16.71617 c -0.74059,0.0529 -1.37538,0.63479 -1.37538,1.37538 0,0.74059 0.63479,1.42828 1.42828,1.37538 0.74059,0 1.32249,-0.63479 1.32249,-1.37538 0,-0.74059 -0.5819,-1.37538 -1.37539,-1.37538 z m -19.46692,-3.43845 c 0,0.74059 0.63479,1.32248 1.37538,1.32248 0.74059,0 1.37538,-0.58189 1.37538,-1.32248 -0.0529,-0.79349 -0.63479,-1.42828 -1.37538,-1.42828 -0.74059,0 -1.42828,0.63479 -1.37538,1.42828 z m 23.01118,-13.27772 c 0,0.74059 0.58189,1.37538 1.32248,1.37538 0.74059,0 1.42828,-0.63479 1.42828,-1.37538 -0.0529,-0.79349 -0.68769,-1.37538 -1.42828,-1.37538 -0.74059,0 -1.37538,0.58189 -1.32248,1.37538 z M 41.092079,203.818 c 0.74059,0 1.37538,-0.6348 1.37538,-1.37539 0,-0.74059 -0.63479,-1.37538 -1.37538,-1.37538 -0.74059,0 -1.37538,0.63479 -1.37538,1.37538 0,0.74059 0.63479,1.37539 1.37538,1.37539 z m -6.66531,-1.79858 c 0.74059,0 1.37538,-0.63479 1.37538,-1.37538 0,-0.74059 -0.63479,-1.37538 -1.37538,-1.37538 -0.74059,0 -1.37538,0.63479 -1.37538,1.37538 0,0.74059 0.63479,1.37538 1.37538,1.37538 z m 16.76907,-6.18921 c 0,0.68769 0.63479,1.32248 1.37538,1.32248 0.74059,0 1.37538,-0.63479 1.37538,-1.37538 0,-0.74059 -0.63479,-1.37538 -1.37538,-1.37538 -0.74059,0 -1.37538,0.63479 -1.37538,1.42828 z m 1.79857,-6.61241 c 0,0.68769 0.63479,1.32248 1.37538,1.32248 0.74059,0 1.37538,-0.63479 1.37538,-1.37538 0,-0.74059 -0.63479,-1.37538 -1.37538,-1.37538 -0.74059,0 -1.37538,0.63479 -1.37538,1.42828 z m -5.23703,-10.15666 c 0.74059,0 1.37538,-0.63479 1.37538,-1.37538 0,-0.74059 -0.63479,-1.37538 -1.37538,-1.37538 -0.74059,0 -1.37538,0.63479 -1.37538,1.37538 0,0.74059 0.63479,1.37538 1.37538,1.37538 z m -6.6653,-1.79857 c 0.74059,0 1.37538,-0.6348 1.37538,-1.37538 0,-0.74059 -0.63479,-1.37539 -1.37538,-1.37539 -0.74059,0 -1.37538,0.6348 -1.37538,1.37539 0,0.74058 0.63479,1.37538 1.37538,1.37538 z"
       id="text6-1"
       style="font-size:301.806px;line-height:1;font-family:'Helvetica Neue';-inkscape-font-specification:'Helvetica Neue';text-align:center;text-anchor:middle;fill:#ffffff;stroke-width:1.32248"
       aria-label="⏱" />
    <path
       d="m 41.091884,404.16389 c 9.997851,0 17.985545,-7.98784 17.985545,-17.98586 0,-9.99802 -7.987694,-18.03876 -17.985545,-18.03876 -9.997852,0 -18.038455,8.04074 -18.038455,18.03876 0,9.99802 8.040603,17.98586 18.038455,17.98586 z m 0,-1.58699 c -8.992783,0 -16.398593,-7.40595 -16.398593,-16.39887 0,-8.99294 7.40581,-16.39887 16.398593,-16.39887 8.992772,0 16.398592,7.40593 16.398592,16.39887 0,8.99292 -7.40582,16.39887 -16.398592,16.39887 z m 0,-14.44159 c 1.057968,0 1.957249,-0.89929 1.957249,-1.95728 0,-0.7406 -0.423196,-1.37539 -1.00508,-1.69279 l 0.158699,-7.45884 -1.057969,-1.05799 -1.005079,1.05799 0.158698,7.35304 c -0.687682,0.3174 -1.163777,1.00509 -1.163777,1.79859 0,1.05799 0.89928,1.95728 1.957259,1.95728 z m -3.70291,-20.41923 c 1.110868,-0.21161 2.327545,-0.37031 3.70291,-0.37031 1.639852,0 2.486233,0.1587 3.65001,0.37031 v -1.48119 c 0,-0.5819 -0.476095,-1.058 -1.057978,-1.058 h -5.236974 c -0.581883,0 -1.057968,0.4761 -1.057968,1.058 z m 18.091354,2.80367 c -0.423195,-0.4761 -0.95218,-0.4761 -1.375375,-0.0529 l -1.110868,1.11089 c 1.057968,0.89929 1.85145,1.69279 2.697831,2.75078 l 1.269576,-1.21669 c 0.317386,-0.31739 0.423185,-0.6877 0,-1.11089 z m -21.000783,2.75078 c -0.793481,0.0529 -1.375365,0.68769 -1.375365,1.42829 0,0.74059 0.581884,1.37539 1.322466,1.42829 0.793481,-0.1058 1.428264,-0.6877 1.428264,-1.42829 0,-0.7406 -0.634783,-1.42829 -1.375365,-1.42829 z m -8.040603,12.9075 c 0,0.74059 0.634783,1.37539 1.375365,1.37539 0.740582,0 1.375366,-0.6348 1.428265,-1.32249 -0.0529,-0.7935 -0.687683,-1.42829 -1.428265,-1.42829 -0.740582,0 -1.375365,0.63479 -1.375365,1.37539 z m 1.798561,-6.61245 c 0,0.74059 0.634783,1.37539 1.375365,1.37539 0.740582,0 1.375365,-0.6348 1.428265,-1.32249 -0.0529,-0.7935 -0.687683,-1.42829 -1.428265,-1.42829 -0.740582,0 -1.375365,0.63479 -1.375365,1.37539 z m 19.466709,16.71627 c -0.740582,0.0529 -1.375365,0.6348 -1.375365,1.37539 0,0.74059 0.634783,1.42829 1.428265,1.37539 0.740582,0 1.322475,-0.6348 1.322475,-1.37539 0,-0.74059 -0.581893,-1.37539 -1.375375,-1.37539 z m -19.466709,-3.43847 c 0,0.74059 0.634783,1.32249 1.375365,1.32249 0.740582,0 1.375365,-0.5819 1.375365,-1.32249 -0.0529,-0.79349 -0.634783,-1.42829 -1.375365,-1.42829 -0.740582,0 -1.428265,0.6348 -1.375365,1.42829 z m 23.010931,-13.2778 c 0,0.74059 0.581883,1.37539 1.322465,1.37539 0.740582,0 1.428265,-0.6348 1.428265,-1.37539 -0.0529,-0.7935 -0.687683,-1.37539 -1.428265,-1.37539 -0.740582,0 -1.375365,0.58189 -1.322465,1.37539 z m -10.15655,21.26564 c 0.740582,0 1.375365,-0.6348 1.375365,-1.3754 0,-0.74059 -0.634783,-1.37539 -1.375365,-1.37539 -0.740582,0 -1.375365,0.6348 -1.375365,1.37539 0,0.7406 0.634783,1.3754 1.375365,1.3754 z m -6.665238,-1.79859 c 0.740582,0 1.375365,-0.6348 1.375365,-1.37539 0,-0.74059 -0.634783,-1.37539 -1.375365,-1.37539 -0.740582,0 -1.375365,0.6348 -1.375365,1.37539 0,0.74059 0.634783,1.37539 1.375365,1.37539 z m 16.768888,-6.18925 c 0,0.68769 0.634783,1.32249 1.375365,1.32249 0.740582,0 1.375366,-0.6348 1.375366,-1.37539 0,-0.74059 -0.634784,-1.37539 -1.375366,-1.37539 -0.740582,0 -1.375365,0.6348 -1.375365,1.42829 z m 1.798551,-6.61245 c 0,0.68769 0.634783,1.32249 1.375365,1.32249 0.740582,0 1.375365,-0.6348 1.375365,-1.37539 0,-0.7406 -0.634783,-1.37539 -1.375365,-1.37539 -0.740582,0 -1.375365,0.63479 -1.375365,1.42829 z m -5.236973,-10.15672 c 0.740582,0 1.375365,-0.6348 1.375365,-1.37539 0,-0.7406 -0.634783,-1.37539 -1.375365,-1.37539 -0.740582,0 -1.375366,0.63479 -1.375366,1.37539 0,0.74059 0.634784,1.37539 1.375366,1.37539 z m -6.665228,-1.79858 c 0.740582,0 1.375365,-0.63481 1.375365,-1.37539 0,-0.7406 -0.634783,-1.3754 -1.375365,-1.3754 -0.740582,0 -1.375365,0.6348 -1.375365,1.3754 0,0.74058 0.634783,1.37539 1.375365,1.37539 z"
       id="text6-1-7"
       style="font-size:301.806px;line-height:1;font-family:'Helvetica Neue';-inkscape-font-specification:'Helvetica Neue';text-align:center;text-anchor:middle;fill:#ffffff;stroke-width:1.32248"
       aria-label="⏱" />
    <path
       d="m 241.06768,207.15065 c 9.99796,0 17.98574,-7.98779 17.98574,-17.98575 0,-9.99796 -7.98778,-18.03865 -17.98574,-18.03865 -9.99796,0 -18.03865,8.04069 -18.03865,18.03865 0,9.99796 8.04069,17.98575 18.03865,17.98575 z m 0,-1.58698 c -8.99288,0 -16.39877,-7.4059 -16.39877,-16.39877 0,-8.99288 7.40589,-16.39877 16.39877,-16.39877 8.99287,0 16.39877,7.40589 16.39877,16.39877 0,8.99287 -7.4059,16.39877 -16.39877,16.39877 z m 0,-14.4415 c 1.05798,0 1.95727,-0.89929 1.95727,-1.95727 0,-0.74059 -0.4232,-1.37538 -1.00509,-1.69278 l 0.1587,-7.45879 -1.05798,-1.05799 -1.00509,1.05799 0.1587,7.35299 c -0.68769,0.3174 -1.16379,1.00509 -1.16379,1.79858 0,1.05798 0.89929,1.95727 1.95728,1.95727 z m -3.70295,-20.41911 c 1.11088,-0.2116 2.32757,-0.3703 3.70295,-0.3703 1.63987,0 2.48626,0.1587 3.65005,0.3703 v -1.48118 c 0,-0.58189 -0.4761,-1.05799 -1.05799,-1.05799 h -5.23703 c -0.58189,0 -1.05798,0.4761 -1.05798,1.05799 z m 18.09155,2.80366 c -0.4232,-0.4761 -0.95219,-0.4761 -1.37539,-0.0529 l -1.11088,1.11088 c 1.05798,0.89929 1.85147,1.69278 2.69786,2.75076 l 1.26959,-1.21668 c 0.31739,-0.31739 0.42319,-0.68769 0,-1.11088 z m -21.00101,2.75076 c -0.79349,0.0529 -1.37538,0.68769 -1.37538,1.42828 0,0.74059 0.58189,1.37538 1.32248,1.42828 0.79349,-0.1058 1.42828,-0.68769 1.42828,-1.42828 0,-0.74059 -0.63479,-1.42828 -1.37538,-1.42828 z m -8.04069,12.90742 c 0,0.74059 0.63479,1.37538 1.37538,1.37538 0.74059,0 1.37538,-0.63479 1.42828,-1.32248 -0.0529,-0.79349 -0.68769,-1.42828 -1.42828,-1.42828 -0.74059,0 -1.37538,0.63479 -1.37538,1.37538 z m 1.79858,-6.61241 c 0,0.74059 0.63479,1.37538 1.37538,1.37538 0.74059,0 1.37538,-0.63479 1.42828,-1.32248 -0.0529,-0.79349 -0.68769,-1.42828 -1.42828,-1.42828 -0.74059,0 -1.37538,0.63479 -1.37538,1.37538 z m 19.46692,16.71617 c -0.74059,0.0529 -1.37538,0.63479 -1.37538,1.37538 0,0.74059 0.63479,1.42828 1.42828,1.37538 0.74059,0 1.32249,-0.63479 1.32249,-1.37538 0,-0.74059 -0.5819,-1.37538 -1.37539,-1.37538 z m -19.46692,-3.43845 c 0,0.74059 0.63479,1.32248 1.37538,1.32248 0.74059,0 1.37538,-0.58189 1.37538,-1.32248 -0.0529,-0.79349 -0.63479,-1.42828 -1.37538,-1.42828 -0.74059,0 -1.42828,0.63479 -1.37538,1.42828 z m 23.01118,-13.27772 c 0,0.74059 0.58189,1.37538 1.32248,1.37538 0.74059,0 1.42828,-0.63479 1.42828,-1.37538 -0.0529,-0.79349 -0.68769,-1.37538 -1.42828,-1.37538 -0.74059,0 -1.37538,0.58189 -1.32248,1.37538 z M 241.06768,203.818 c 0.74059,0 1.37538,-0.6348 1.37538,-1.37539 0,-0.74059 -0.63479,-1.37538 -1.37538,-1.37538 -0.74059,0 -1.37538,0.63479 -1.37538,1.37538 0,0.74059 0.63479,1.37539 1.37538,1.37539 z m -6.66531,-1.79858 c 0.74059,0 1.37538,-0.63479 1.37538,-1.37538 0,-0.74059 -0.63479,-1.37538 -1.37538,-1.37538 -0.74059,0 -1.37538,0.63479 -1.37538,1.37538 0,0.74059 0.63479,1.37538 1.37538,1.37538 z m 16.76907,-6.18921 c 0,0.68769 0.63479,1.32248 1.37538,1.32248 0.74059,0 1.37538,-0.63479 1.37538,-1.37538 0,-0.74059 -0.63479,-1.37538 -1.37538,-1.37538 -0.74059,0 -1.37538,0.63479 -1.37538,1.42828 z m 1.79857,-6.61241 c 0,0.68769 0.63479,1.32248 1.37538,1.32248 0.74059,0 1.37538,-0.63479 1.37538,-1.37538 0,-0.74059 -0.63479,-1.37538 -1.37538,-1.37538 -0.74059,0 -1.37538,0.63479 -1.37538,1.42828 z m -5.23703,-10.15666 c 0.74059,0 1.37538,-0.63479 1.37538,-1.37538 0,-0.74059 -0.63479,-1.37538 -1.37538,-1.37538 -0.74059,0 -1.37538,0.63479 -1.37538,1.37538 0,0.74059 0.63479,1.37538 1.37538,1.37538 z m -6.6653,-1.79857 c 0.74059,0 1.37538,-0.6348 1.37538,-1.37538 0,-0.74059 -0.63479,-1.37539 -1.37538,-1.37539 -0.74059,0 -1.37538,0.6348 -1.37538,1.37539 0,0.74058 0.63479,1.37538 1.37538,1.37538 z"
       id="text6-1-6"
       style="font-size:301.806px;line-height:1;font-family:'Helvetica Neue';-inkscape-font-specification:'Helvetica Neue';text-align:center;text-anchor:middle;fill:#ffffff;stroke-width:1.32248"
       aria-label="⏱" />
    <path
       d="m 241.06749,404.16389 c 9.99785,0 17.98554,-7.98784 17.98554,-17.98586 0,-9.99802 -7.98769,-18.03876 -17.98554,-18.03876 -9.99785,0 -18.03846,8.04074 -18.03846,18.03876 0,9.99802 8.04061,17.98586 18.03846,17.98586 z m 0,-1.58699 c -8.99278,0 -16.39859,-7.40595 -16.39859,-16.39887 0,-8.99294 7.40581,-16.39887 16.39859,-16.39887 8.99277,0 16.39859,7.40593 16.39859,16.39887 0,8.99292 -7.40582,16.39887 -16.39859,16.39887 z m 0,-14.44159 c 1.05797,0 1.95725,-0.89929 1.95725,-1.95728 0,-0.7406 -0.4232,-1.37539 -1.00508,-1.69279 l 0.1587,-7.45884 -1.05797,-1.05799 -1.00508,1.05799 0.1587,7.35304 c -0.68769,0.3174 -1.16378,1.00509 -1.16378,1.79859 0,1.05799 0.89928,1.95728 1.95726,1.95728 z m -3.70291,-20.41923 c 1.11087,-0.21161 2.32754,-0.37031 3.70291,-0.37031 1.63985,0 2.48623,0.1587 3.65001,0.37031 v -1.48119 c 0,-0.5819 -0.4761,-1.058 -1.05798,-1.058 h -5.23697 c -0.58189,0 -1.05797,0.4761 -1.05797,1.058 z m 18.09135,2.80367 c -0.42319,-0.4761 -0.95218,-0.4761 -1.37537,-0.0529 l -1.11087,1.11089 c 1.05797,0.89929 1.85145,1.69279 2.69783,2.75078 l 1.26958,-1.21669 c 0.31738,-0.31739 0.42318,-0.6877 0,-1.11089 z m -21.00078,2.75078 c -0.79348,0.0529 -1.37537,0.68769 -1.37537,1.42829 0,0.74059 0.58189,1.37539 1.32247,1.42829 0.79348,-0.1058 1.42826,-0.6877 1.42826,-1.42829 0,-0.7406 -0.63478,-1.42829 -1.37536,-1.42829 z m -8.0406,12.9075 c 0,0.74059 0.63478,1.37539 1.37536,1.37539 0.74058,0 1.37537,-0.6348 1.42827,-1.32249 -0.0529,-0.7935 -0.68769,-1.42829 -1.42827,-1.42829 -0.74058,0 -1.37536,0.63479 -1.37536,1.37539 z m 1.79856,-6.61245 c 0,0.74059 0.63478,1.37539 1.37536,1.37539 0.74058,0 1.37537,-0.6348 1.42827,-1.32249 -0.0529,-0.7935 -0.68769,-1.42829 -1.42827,-1.42829 -0.74058,0 -1.37536,0.63479 -1.37536,1.37539 z m 19.46671,16.71627 c -0.74059,0.0529 -1.37537,0.6348 -1.37537,1.37539 0,0.74059 0.63478,1.42829 1.42827,1.37539 0.74058,0 1.32247,-0.6348 1.32247,-1.37539 0,-0.74059 -0.58189,-1.37539 -1.37537,-1.37539 z m -19.46671,-3.43847 c 0,0.74059 0.63478,1.32249 1.37536,1.32249 0.74058,0 1.37537,-0.5819 1.37537,-1.32249 -0.0529,-0.79349 -0.63479,-1.42829 -1.37537,-1.42829 -0.74058,0 -1.42826,0.6348 -1.37536,1.42829 z m 23.01093,-13.2778 c 0,0.74059 0.58188,1.37539 1.32246,1.37539 0.74059,0 1.42827,-0.6348 1.42827,-1.37539 -0.0529,-0.7935 -0.68768,-1.37539 -1.42827,-1.37539 -0.74058,0 -1.37536,0.58189 -1.32246,1.37539 z m -10.15655,21.26564 c 0.74058,0 1.37536,-0.6348 1.37536,-1.3754 0,-0.74059 -0.63478,-1.37539 -1.37536,-1.37539 -0.74058,0 -1.37537,0.6348 -1.37537,1.37539 0,0.7406 0.63479,1.3754 1.37537,1.3754 z m -6.66524,-1.79859 c 0.74058,0 1.37537,-0.6348 1.37537,-1.37539 0,-0.74059 -0.63479,-1.37539 -1.37537,-1.37539 -0.74058,0 -1.37536,0.6348 -1.37536,1.37539 0,0.74059 0.63478,1.37539 1.37536,1.37539 z m 16.76889,-6.18925 c 0,0.68769 0.63478,1.32249 1.37536,1.32249 0.74059,0 1.37537,-0.6348 1.37537,-1.37539 0,-0.74059 -0.63478,-1.37539 -1.37537,-1.37539 -0.74058,0 -1.37536,0.6348 -1.37536,1.42829 z m 1.79855,-6.61245 c 0,0.68769 0.63478,1.32249 1.37536,1.32249 0.74059,0 1.37537,-0.6348 1.37537,-1.37539 0,-0.7406 -0.63478,-1.37539 -1.37537,-1.37539 -0.74058,0 -1.37536,0.63479 -1.37536,1.42829 z m -5.23697,-10.15672 c 0.74058,0 1.37536,-0.6348 1.37536,-1.37539 0,-0.7406 -0.63478,-1.37539 -1.37536,-1.37539 -0.74059,0 -1.37537,0.63479 -1.37537,1.37539 0,0.74059 0.63478,1.37539 1.37537,1.37539 z m -6.66523,-1.79858 c 0.74058,0 1.37536,-0.63481 1.37536,-1.37539 0,-0.7406 -0.63478,-1.3754 -1.37536,-1.3754 -0.74058,0 -1.37537,0.6348 -1.37537,1.3754 0,0.74058 0.63479,1.37539 1.37537,1.37539 z"
       id="text6-1-7-0"
       style="font-size:301.806px;line-height:1;font-family:'Helvetica Neue';-inkscape-font-specification:'Helvetica Neue';text-align:center;text-anchor:middle;fill:#ffffff;stroke-width:1.32248"
       aria-label="⏱" />
  </g>
</svg>
