<?xml version="1.0" encoding="UTF-8" standalone="no"?>
<!-- Created with Inkscape (http://www.inkscape.org/) -->

<svg
   width="256mm"
   height="256mm"
   viewBox="0 0 256 256"
   version="1.1"
   id="svg1"
   inkscape:version="1.4 (e7c3feb1, 2024-10-09)"
   xmlns:inkscape="http://www.inkscape.org/namespaces/inkscape"
   xmlns:sodipodi="http://sodipodi.sourceforge.net/DTD/sodipodi-0.dtd"
   xmlns="http://www.w3.org/2000/svg"
   xmlns:svg="http://www.w3.org/2000/svg">
  <sodipodi:namedview
     id="namedview1"
     pagecolor="#ffffff"
     bordercolor="#666666"
     borderopacity="1.0"
     inkscape:showpageshadow="2"
     inkscape:pageopacity="0.0"
     inkscape:pagecheckerboard="0"
     inkscape:deskcolor="#d1d1d1"
     inkscape:document-units="mm"
     inkscape:zoom="0.14467218"
     inkscape:cx="-262.6628"
     inkscape:cy="-10.368268"
     inkscape:window-width="1488"
     inkscape:window-height="714"
     inkscape:window-x="0"
     inkscape:window-y="34"
     inkscape:window-maximized="0"
     inkscape:current-layer="layer1" />
  <defs
     id="defs1" />
  <g
     inkscape:label="Layer 1"
     inkscape:groupmode="layer"
     id="layer1"
     transform="translate(-13.053429,-158.16389)">
    <rect
       style="fill:#000000;fill-opacity:1;stroke:#000000;stroke-width:2.64866;stroke-linecap:round"
       id="rect6"
       width="253.35133"
       height="253.35133"
       x="14.377761"
       y="159.48822" />
    <g
       id="text6"
       style="font-stretch:condensed;font-size:48.5441px;line-height:1;font-family:Fungal;-inkscape-font-specification:'Fungal Condensed';text-align:center;text-anchor:middle;stroke-width:1.21361"
       aria-label="TIME&#10;DOES&#10;NOT&#10;EXIST">
      <path
         style="fill:#ffffff"
         d="m 84.29066,198.27966 h 7.134655 q 0.497767,0.30814 1.090346,0.30814 0.59258,0 1.090346,-0.30814 0.474064,-0.28444 0.734799,-0.7585 0.260735,-0.47406 0.260735,-1.01924 0,-0.85331 -0.616283,-1.46959 -0.592579,-0.61629 -1.469597,-0.61629 -0.877017,0 -1.4933,0.61629 -0.592579,0.61628 -0.592579,1.46959 0,0.54518 0.260735,1.01924 0.260735,0.47406 0.734798,0.7585 h 5.428027 v 31.3593 h 4.811748 v -29.70008 q 0.68739,-0.0711 1.16145,-0.52147 0.49777,-0.47406 0.61628,-1.13775 0.0474,-0.28444 0.0474,-0.40295 0,-0.85332 -0.61628,-1.4696 -0.59258,-0.61628 -1.4696,-0.61628 -0.87702,0 -1.493298,0.61628 -0.59258,0.61628 -0.59258,1.4696 0,0.85331 0.59258,1.46959 0.616278,0.61629 1.493298,0.61629 0.16592,0 0.26074,-0.0237 v -1.65922 h 12.56268 v -4.02954 h -4.55101 q -0.11852,-0.71109 -0.68739,-1.18516 -0.56888,-0.49776 -1.35108,-0.49776 -0.78221,0 -1.35108,0.49776 -0.56888,0.47407 -0.6874,1.18516 -0.0474,0.28444 -0.0474,0.40296 0,0.85331 0.59258,1.46959 0.61628,0.61629 1.4933,0.61629 0.87701,0 1.46959,-0.61629 0.61629,-0.61628 0.61629,-1.46959 0,-0.11852 -0.0474,-0.40296 H 84.29066 Z M 23.160172,210.5105 q 0,0 0,0 z m 0,0 q 0,0 0,0 z m 0.165922,-9.81311 q 0,0 0,0 z m 0,0 q 0,0 0,0 z m 2.062177,17.32702 q 0,0 0,0 z m 0,0 q 0,0 0,0 z m 2.488833,-29.34453 q 0,0 0.0237,0 z m 0.0237,0 q 0,0 0,0 z m 10.97457,-7.56132 q 0,0 0,0 z m 0,0 q 0,0 0,0 z m 10.595319,-1.58811 q 0,0 0,0 z m 0,0 q 0,0 0,0 z m 10.90346,0.94813 q 0,0 0,0 z m 0,0 q 0,0 0,0 z m 6.636889,6.58948 q 0,0.85331 0.616283,1.4696 0.592579,0.61628 1.469597,0.61628 0.877017,0 1.4933,-0.61628 0.592579,-0.61629 0.592579,-1.4696 0,-0.85331 -0.592579,-1.4696 -0.616283,-0.61628 -1.4933,-0.61628 -0.877018,0 -1.469597,0.61628 -0.616283,0.61629 -0.616283,1.4696 z m 8.936097,7.96427 q 0,1.06664 0.545173,2.01477 0.52147,0.92442 1.445894,1.46959 0.924424,0.54518 2.038473,0.54518 1.114049,0 2.038473,-0.54518 0.924424,-0.54517 1.469597,-1.46959 0.52147,-0.92443 0.52147,-2.01477 0,-1.09035 -0.52147,-2.01477 -0.545173,-0.92443 -1.445894,-1.4696 -0.924424,-0.54517 -2.062176,-0.54517 -1.114049,0 -2.038473,0.54517 -0.924424,0.54517 -1.445894,1.4696 -0.545173,0.92442 -0.545173,2.01477 z m 16.781848,18.91513 q 0,0 0,0 z m 0,0 q 0,0 0,0 z m 0.331844,10.31088 q 0,0 0,0 z m 0,0 q 0,0 0,0 z m 5.45173,-18.93884 q 0,0 0,0 z m 0,0 q 0,0 0,0 z m 5.262106,24.6039 q 0,0 0.0237,0 z m 0.0237,0 q 0,0 0,0 z m 10.87976,-3.88732 q 0,0 0,0 z m 0,0 q 0,0 0,0 z m 0.26073,-29.74748 q 0,0.97183 0.47407,1.80144 0.49776,0.82961 1.30367,1.32737 0.82961,0.47407 1.82515,0.47407 0.99553,0 1.82514,-0.47407 0.82961,-0.49776 1.30368,-1.32737 0.47406,-0.82961 0.47406,-1.80144 0,-0.97184 -0.47406,-1.80145 -0.47407,-0.82961 -1.30368,-1.30367 -0.82961,-0.49777 -1.82514,-0.49777 -0.99554,0 -1.82515,0.49777 -0.80591,0.47406 -1.30367,1.30367 -0.47407,0.82961 -0.47407,1.80145 z m 8.98351,34.08516 q 0,0 0,0 z m 0,0 q 0,0 0,0 z m 3.38955,5.92579 q 0,0 0,0 z m 0,0 q 0,0 0,0 z m 0.66369,-34.44071 q 0,0.85332 0.59258,1.4696 0.61628,0.61628 1.4933,0.61628 0.87702,0 1.4696,-0.61628 0.61628,-0.61628 0.61628,-1.4696 0,-0.85331 -0.61628,-1.4696 -0.59258,-0.61628 -1.4696,-0.61628 -0.87702,0 -1.4933,0.61628 -0.59258,0.61629 -0.59258,1.4696 z m 13.32118,-3.91102 q 0,0 0,0 z m 0,0 q 0,0 0,0 z m 6.6606,-8.41463 q 0,0 0,0 z m 0,0 q 0,0 0,0 z m 8.88869,-7.32428 q 0,0 0,0 z m 0,0 q 0,0 0,0 z m 9.31534,-6.39986 q 0,0 0,0 z m 0,0 q 0,0 0,0 z m 11.68567,1.06664 q 0,0 0,0 z m 0,0 q 0,0 0,0 z m 5.66506,9.17313 q 0,0 0,0 z m 0,0 q 0,0 0,0 z m 2.51254,7.4428 q 0,0 0,0 z m 0,0 q 0,0 0,0 z m -67.1748,21.21434 q -0.61628,-0.68739 -1.56441,-0.68739 -0.87702,0 -1.4933,0.61628 -0.59258,0.61628 -0.59258,1.4696 0,0.85331 0.59258,1.4696 0.61628,0.61628 1.4933,0.61628 0.94813,0 1.56441,-0.68739 0.52147,-0.59258 0.52147,-1.39849 0,-0.80591 -0.52147,-1.39849 v 14.933 h 4.78804 v -21.42767 q 1.517,-0.18962 2.51254,-1.32738 1.01923,-1.16145 1.01923,-2.67845 0,-1.54071 -1.01923,-2.67846 -0.99554,-1.16146 -2.51254,-1.32738 -0.16592,-0.0237 -0.49777,-0.0237 -1.11405,0 -2.03847,0.54517 -0.92442,0.54517 -1.4696,1.4696 -0.52147,0.92442 -0.52147,2.01477 0,1.06664 0.52147,2.01477 0.54518,0.92442 1.4696,1.46959 0.92442,0.54518 2.03847,0.54518 0.33185,0 0.49777,-0.0237 v -13.96117 h -4.78804 z M 91.449019,123.35393 q 0,0 0,0 z m 0,0 q 0,0 0,0 z m 7.063546,-0.52147 q 0,0 0,0 z m 0,0 q 0,0 0,0 z m 6.945025,49.51593 q 0,0 0,0 z m 0,0 q 0,0 0,0 z m 1.20887,9.742 q 0,0.85332 0.61628,1.4696 0.59258,0.61628 1.4696,0.61628 0.87701,0 1.4933,-0.61628 0.59258,-0.61628 0.59258,-1.4696 0,-0.85331 -0.59258,-1.46959 -0.61629,-0.61629 -1.4933,-0.61629 -0.87702,0 -1.4696,0.61629 -0.61628,0.61628 -0.61628,1.46959 z m 0.33184,-19.72104 q 0,0 0,0 z m 0,0 q 0,0 0,0 z m 0.30814,-32.8763 q 0,0 0,0 z m 0,0 q 0,0 0,0 z m 3.01031,22.18617 q 0,0 0,0 z m 0,0 q 0,0 0,0 z m 1.18515,-12.30195 q 0,0 0.0237,0 z m 0.0237,0 q 0,0 0,0 z m 3.43696,87.44101 q 0,0 0,0 z m 0,0 q 0,0 0,0 z m 0.63998,-36.76362 q 0,1.06664 0.52147,2.01477 0.54518,0.92442 1.4696,1.4696 0.92442,0.54517 2.03847,0.54517 1.11405,0 2.03848,-0.54517 0.92442,-0.54518 1.44589,-1.4696 0.54517,-0.92442 0.54517,-2.01477 0,-1.09035 -0.54517,-2.01477 -0.52147,-0.92442 -1.44589,-1.4696 -0.90072,-0.54517 -2.03848,-0.54517 -1.11405,0 -2.03847,0.54517 -0.92442,0.54518 -1.4696,1.4696 -0.52147,0.92442 -0.52147,2.01477 z m 3.674,48.63891 q 0,0 0,0 z m 0,0 q 0,0 0,0 z m 3.83991,42.33387 q 0,0 0,0 z m 0,0 q 0,0 0,0 z m 5.2621,-35.95771 q 0,0 0,0 z m 0,0 q 0,0 0,0 z m 1.91996,34.46441 q 0,0 0,0 z m 0,0 q 0,0 0,0 z m 4.02954,-26.23941 q 0,0 0,0 z m 0,0 q 0,0 0,0 z m 3.57918,19.64993 q 0,0 0,0 z m 0,0 q 0,0 0,0 z m 0.92442,-10.40569 q 0,0 0,0 z m 0,0 q 0,0 0,0 z m -5.66505,-66.39259 q 0.40295,0.0711 0.7822,0.0711 1.11405,0 2.01477,-0.52147 0.92443,-0.54518 1.4459,-1.4459 h -4.24287 z M 71.443541,153.57547 q 0,0 0,0 z m 0,0 q 0,0 0,0 z m 0.165922,10.61903 q 0,0 0,0 z m 0,0 q 0,0 0,0 z m 1.706629,-18.27515 q 0,0 0,0 z m 0,0 q 0,0 0,0 z m 8.533142,25.69424 q 0,0 0.0237,0 z m 0.0237,0 q 0,0 0,0 z m 10.97457,6.66059 q 0,0 0,0 z m 0,0 q 0,0 0,0 z m 10.595322,-1.58811 q 0,0 0,0 z m 0,0 q 0,0 0,0 z m 10.90346,0.94813 q 0,0 0,0 z m 0,0 q 0,0 0,0 z m 6.63689,6.58948 q 0,0.85331 0.61628,1.4696 0.59258,0.61628 1.4696,0.61628 0.87701,0 1.4933,-0.61628 0.59257,-0.61629 0.59257,-1.4696 0,-0.85332 -0.59257,-1.4696 -0.61629,-0.61628 -1.4933,-0.61628 -0.87702,0 -1.4696,0.61628 -0.61628,0.61628 -0.61628,1.4696 z m 8.93609,7.96427 q 0,1.44589 0.92443,2.55994 0.92442,1.11405 2.32291,1.39849 v 33.49258 h 4.64582 V 198.5641 l 1.01924,2.72586 q -0.45036,0.56888 -0.45036,1.30368 0,0.7585 0.47406,1.35108 0.49777,0.56888 1.25627,0.7111 0.11851,0.0237 0.35555,0.0237 0.87701,0 1.46959,-0.61628 0.61628,-0.61629 0.61628,-1.4696 0,-0.85331 -0.61628,-1.4696 -0.59258,-0.61628 -1.46959,-0.61628 -0.49777,0 -0.92443,0.21333 -0.42666,0.21333 -0.71109,0.56887 l 8.10648,21.54619 h 4.81175 l 9.12572,-24.27205 v 31.07486 h 0.85331 q -1.11405,1.18516 -1.11405,2.79698 0,1.06664 0.52147,1.99106 0.54518,0.94813 1.4696,1.4933 0.92442,0.54518 2.03847,0.54518 1.11405,0 2.03848,-0.54518 0.92442,-0.54517 1.44589,-1.46959 0.54517,-0.92443 0.54517,-2.01477 0,-1.4459 -0.87701,-2.53624 -0.87702,-1.09035 -2.25181,-1.39849 -0.37925,-0.0948 -0.90072,-0.0948 -0.85331,0 -1.61181,0.33184 -0.7348,0.30814 -1.30368,0.90072 h 3.81621 v -7.41909 q 0.42666,0.21333 0.94813,0.21333 0.87702,0 1.4696,-0.61629 0.61628,-0.61628 0.61628,-1.46959 0,-0.85332 -0.61628,-1.4696 -0.59258,-0.61628 -1.4696,-0.61628 -0.52147,0 -0.94813,0.21333 -0.52147,0.26073 -0.82961,0.7822 -0.30814,0.49777 -0.30814,1.09035 0,0.59258 0.30814,1.11405 0.30814,0.49776 0.82961,0.7585 v -27.96975 h -7.13465 l -9.07832,24.08243 -9.03091,-24.08243 h -2.89178 q 0.56887,-0.99553 0.56887,-2.06217 0,-1.09035 -0.54517,-2.01477 -0.52147,-0.92443 -1.44589,-1.4696 -0.90073,-0.54517 -2.03848,-0.54517 -1.11405,0 -2.03847,0.54517 -0.92442,0.54517 -1.4696,1.4696 -0.52147,0.92442 -0.52147,2.01477 z m 13.27378,19.03365 q 0,0 0,0 z m 0,0 q 0,0 0,0 z m 3.98213,54.25656 q 0,0 0,0 z m 0,0 q 0,0 0,0 z m 2.37032,10.99827 q 0,0 0,0 z m 0,0 q 0,0 0,0 z m 2.74957,-20.33732 q 0,0 0,0 z m 0,0 q 0,0 0,0 z m 4.62212,31.54893 q 0,0 0.0237,0 z m 0.0237,0 q 0,0 0,0 z m 1.20886,-41.14871 q 0,1.06664 0.7348,1.80144 0.7348,0.7585 1.82515,0.7585 1.09034,0 1.82514,-0.7585 0.7348,-0.7348 0.7348,-1.80144 0,-1.06665 -0.7348,-1.82515 -0.7348,-0.7348 -1.82514,-0.7348 -1.09035,0 -1.82515,0.7348 -0.7348,0.7585 -0.7348,1.82515 z m 5.40433,-45.81824 q 0,0 0,0 z m 0,0 q 0,0 0,0 z m 0.0237,10.28718 q 0,0 0,0 z m 0,0 q 0,0 0,0 z m 5.02507,79.76118 q 0,0 0,0 z m 0,0 q 0,0 0,0 z m 8.79388,4.43249 q 0,0 0,0 z m 0,0 q 0,0 0,0 z m 6.54208,4.66953 q 0,0 0,0 z m 0,0 q 0,0 0,0 z m -8.8887,-70.23251 h 22.80246 v -4.02954 H 179.83816 V 212.786 h 16.85295 v -4.02954 h -16.85295 v -10.4768 h 0.85331 q 0.54517,0.85332 1.42219,1.35108 0.90072,0.49777 1.96736,0.49777 1.09035,0 1.96737,-0.49777 0.90072,-0.49776 1.44589,-1.35108 h 9.93163 v -4.02954 h -9.76571 q -0.49776,-0.99553 -1.44589,-1.58811 -0.94813,-0.59258 -2.13329,-0.59258 -1.16145,0 -2.13328,0.61628 -0.94813,0.59258 -1.4459,1.56441 -0.45036,0.90072 -0.45036,1.84885 0,1.16146 0.63999,2.18069 h 6.80281 q 0.61628,-1.04294 0.61628,-2.18069 0,-0.94813 -0.45036,-1.84885 h -12.61009 z m -13.74784,77.69901 q 0,0 0,0 z m 0,0 q 0,0 0,0 z m 0.7348,-13.416 q 0,0 0,0 z m 0,0 q 0,0 0,0 z m 1.73033,8.2013 q 0,0 0,0 z m 0,0 q 0,0 0,0 z m 4.07695,-48.92335 q 0,0 0,0 z m 0,0 q 0,0 0,0 z m 0.82961,30.24525 q 0,0 0,0 z m 0.0237,0 q 0,0 -0.0237,0 z m 0.35555,-39.98726 q 0,0.85332 0.61628,1.4696 0.59258,0.61628 1.4696,0.61628 0.87702,0 1.4696,-0.61628 0.61628,-0.61628 0.61628,-1.4696 0,-0.85331 -0.61628,-1.46959 -0.59258,-0.61629 -1.4696,-0.61629 -0.87702,0 -1.4696,0.61629 -0.61628,0.61628 -0.61628,1.46959 z m 0.33185,19.72104 q 0,0 0,0 z m 0,0 q 0,0 0,0 z m 2.15698,9.76571 q 0,0 0,0 z m 0,0 q 0,0 0,0 z m 6.44727,-37.45101 q 0,1.09034 0.52147,2.01477 0.54517,0.92442 1.46959,1.46959 0.92443,0.54518 2.03848,0.54518 1.13775,0 2.03847,-0.54518 0.92442,-0.54517 1.44589,-1.46959 0.54518,-0.92443 0.54518,-2.01477 0,-1.09035 -0.54518,-2.01477 -0.52147,-0.92443 -1.44589,-1.4696 -0.92442,-0.54517 -2.03847,-0.54517 -1.11405,0 -2.03848,0.54517 -0.92442,0.54517 -1.46959,1.4696 -0.52147,0.94812 -0.52147,2.01477 z m 13.84265,-44.32494 q 0,0.85331 0.59258,1.4696 0.61628,0.61628 1.4933,0.61628 0.87702,0 1.4696,-0.61628 0.61628,-0.61629 0.61628,-1.4696 0,-0.85331 -0.61628,-1.4696 -0.59258,-0.61628 -1.4696,-0.61628 -0.87702,0 -1.4933,0.61628 -0.59258,0.61629 -0.59258,1.4696 z m 9.97904,-7.60872 q 0,0 0,0 z m 0,0 q 0,0 0,0 z m 4.69323,-8.60425 q 0,0 0,0 z m 0,0 q 0,0 0,0 z m 9.17313,-6.30505 q 0,0 0,0 z m 0,0 q 0,0 0,0 z m 12.46787,1.68293 q 0,0 0,0 z m 0.0237,0 q 0,0 -0.0237,0 z m 6.11542,9.67089 q 0,0 0,0 z m 0,0 q 0,0 0,0 z m 1.06664,9.10202 q 0,0 0,0 z m 0,0 q 0,0 0,0 z m 4.05324,4.95397 q 0,0 0,0 z m 0,0 q 0,0 0,0 z"
         id="path9" />
      <path
         style="fill:#ffffff"
         d="m 87.407627,246.72895 q 0.07111,0.99553 0.616283,1.84885 0.568876,0.82961 1.445893,1.32738 0.900721,0.49776 1.943661,0.49776 1.42219,0 2.488833,-0.85331 1.066643,-0.85332 1.42219,-2.15699 4.242869,1.16146 6.257643,4.36138 2.03847,3.19993 2.03847,8.69907 0,4.78804 -1.4933,7.84575 -1.4933,3.03401 -4.622121,4.5036 -3.105115,1.4459 -8.011673,1.4459 H 83.709932 V 246.72895 Z M 77.238965,228.66713 q 0,0 0,0 z m 0,0 q 0,0 0,0 z m 1.208862,9.74201 q 0,0.85331 0.592579,1.46959 0.616283,0.61629 1.4933,0.61629 0.877018,0 1.469597,-0.61629 0.616283,-0.61628 0.616283,-1.46959 0,-0.85332 -0.616283,-1.4696 -0.592579,-0.61628 -1.469597,-0.61628 -0.877017,0 -1.4933,0.61628 -0.592579,0.61628 -0.592579,1.4696 z m 0.331844,-19.72104 q 0,0 0,0 z m 0,0 q 0,0 0,0 z m 9.979037,59.49496 q 6.850218,0 11.235305,-1.89625 4.408787,-1.89625 6.542077,-5.80728 2.13328,-3.91102 2.13328,-10.02644 0,-7.94056 -3.62658,-12.18343 -3.62659,-4.24287 -11.282712,-5.191 -1.04294,-0.7348 -2.346614,-0.7348 -1.019237,0 -1.872551,0.45036 h -0.782205 -9.836817 v 35.38884 z M 80.93666,208.92239 q 0,0 0,0 z m 0,0 q 0,0 0,0 z m 5.546543,45.41528 q 0,0 0,0 z m 0,0 q 0,0 0,0 z m 0.331845,9.55238 q 0,0 0,0 z m 0,0 q 0,0 0,0 z m 0.568876,-17.51665 q 0,0.23703 0.0237,0.35555 h 2.085879 q 3.342148,0 5.830981,0.66369 0.118516,-0.54517 0.118516,-1.01924 0,-0.99553 -0.45036,-1.87255 -0.45036,-0.87702 -1.232565,-1.42219 -1.94366,-0.23703 -4.219165,-0.28444 -0.995534,0.52147 -1.588113,1.4696 -0.568876,0.94813 -0.568876,2.10958 z m 2.749568,-44.77529 q 0,0 0,0 z m 0,0 q 0,0 0,0 z m 0.04741,69.18956 q 0,0 0,0 z m 0,0 q 0,0 0,0 z m 6.470966,-15.05151 q 0,0.85331 0.59258,1.46959 0.616282,0.61629 1.4933,0.61629 0.877017,0 1.469595,-0.61629 0.61628,-0.61628 0.61628,-1.46959 0,-0.85332 -0.61628,-1.4696 -0.592578,-0.61628 -1.469595,-0.61628 -0.877018,0 -1.4933,0.61628 -0.59258,0.61628 -0.59258,1.4696 z m 0.853314,8.46203 q 0,0 0,0 z m 0,0 q 0,0 0,0 z M 99.733278,193.302 q 0,0 0,0 z m 0,0 q 0,0 0,0 z m 9.789412,0.21332 q 0,0 0,0 z m 0,0 q 0,0 0,0 z m 5.04878,2.41773 q 0,0 0,0 z m 0,0 q 0,0 0,0 z m 16.09445,50.10851 q 3.43696,0 5.9969,1.75403 2.55995,1.75404 3.93473,5.02508 1.37478,3.27103 1.37478,7.70353 0,4.40879 -1.37478,7.67983 -1.37478,3.27104 -3.93473,5.02507 -2.55994,1.75403 -5.9969,1.75403 -2.86808,0 -5.14359,-1.20886 -2.2755,-1.23256 -3.7688,-3.53177 -1.4933,-2.32291 -2.08588,-5.54654 0.47406,-0.28444 0.7585,-0.7585 0.28444,-0.47407 0.28444,-1.04294 0,-0.6874 -0.40296,-1.20887 -0.37925,-0.54517 -0.99553,-0.7585 v -0.40295 q 0,-4.4325 1.37478,-7.70353 1.39849,-3.27104 3.95843,-5.02508 2.55995,-1.75403 6.02061,-1.75403 z m -78.338992,50.70109 q 0,0 0,0 z m 0,0 q 0,0 0,0 z m 5.593949,-2.77327 q 0,0 0,0 z m 0,0 q 0,0 0,0 z m 5.665059,1.09034 q 0,0 0,0 z m 0,0 q 0,0 0,0 z m 8.201298,-2.51253 q 0,0 0,0 z m 0,0 q 0,0 0,0 z m 8.912394,-5.90209 q 0,0 0,0 z m 0,0 q 0,0 0,0 z m 5.428027,-4.95397 q 0,0 0,0 z m 0,0 q 0,0 0,0 z m 6.684295,-2.63105 q 0,0 0,0 z m 0,0 q 0,0 0,0 z m 7.37169,0.54517 q 0,0.87702 0.61628,1.4696 0.61628,0.61628 1.4696,0.61628 0.85331,0 1.46959,-0.61628 0.61629,-0.59258 0.61629,-1.4696 0,-0.87701 -0.61629,-1.46959 -0.61628,-0.61629 -1.46959,-0.61629 -0.85332,0 -1.4696,0.61629 -0.61628,0.59258 -0.61628,1.46959 z m 9.33905,-6.7554 q 0,1.11405 0.54517,2.03847 0.54517,0.92443 1.4696,1.4696 0.94813,0.52147 2.01477,0.52147 1.09034,0 2.01477,-0.52147 0.92442,-0.54517 1.46959,-1.4696 0.54518,-0.92442 0.54518,-2.03847 0,-0.30814 -0.0237,-0.45036 2.15699,3.12882 5.49914,4.81174 3.36585,1.65923 7.60872,1.65923 4.93026,0 8.62796,-2.25181 3.69769,-2.2518 5.71246,-6.39985 2.01477,-4.17176 2.01477,-9.6946 0,-5.54654 -2.01477,-9.6946 -2.01477,-4.14806 -5.71246,-6.39986 -3.6977,-2.2755 -8.62796,-2.2755 -4.93026,0 -8.65166,2.2755 -3.69769,2.2518 -5.73617,6.39986 -2.01477,4.14806 -2.01477,9.6946 0,5.09618 1.75404,9.12572 -1.09035,-0.82961 -2.46513,-0.82961 -1.09035,0 -2.01477,0.54517 -0.92443,0.52147 -1.4696,1.4459 -0.54517,0.92442 -0.54517,2.03847 z m 6.49467,-3.19993 q 0.7348,1.58811 1.5407,2.74957 -0.0948,-0.85332 -0.49776,-1.56441 -0.40296,-0.7111 -1.04294,-1.18516 z m 0.52147,-6.7554 q 0,0.87701 0.61628,1.4933 0.61628,0.59258 1.4696,0.59258 0.59258,0 1.04294,-0.28444 -0.30814,-1.73033 -0.35555,-3.76881 -0.35555,-0.11851 -0.68739,-0.11851 -0.85332,0 -1.4696,0.61628 -0.61628,0.59258 -0.61628,1.4696 z m 5.11988,-8.10649 q 0,0 0,0 z m 0,0 q 0,0 0,0 z m 4.93026,-1.91996 q 0,0 0,0 z m 0,0 q 0,0 0,0 z m 3.05771,-5.09618 q 0,0 0,0 z m 0,0 q 0,0 0,0 z m 3.31845,15.31225 q 0,0 0,0 z m 0,0 q 0,0 0,0 z m 3.31844,-4.95396 q 0,0 0,0 z m 0,0 q 0,0 0,0 z m 1.01924,-7.27688 q 0,0 0,0 z m 0,0 q 0,0 0,0 z m 3.57918,7.08725 q 0,0 0,0 z m 0,0 q 0,0 0,0 z m 13.62932,20.24251 h 22.80246 v -4.02954 h -18.01441 v -12.82341 h 16.85295 v -4.02954 h -16.85295 v -10.47681 h 0.85331 q 0.54517,0.85332 1.42219,1.35108 0.90072,0.49777 1.96736,0.49777 1.09035,0 1.96737,-0.49777 0.90072,-0.49776 1.44589,-1.35108 h 9.93163 v -4.02954 h -9.76571 q -0.49776,-0.99553 -1.44589,-1.58811 -0.94813,-0.59258 -2.13329,-0.59258 -1.16145,0 -2.13328,0.61628 -0.94813,0.59258 -1.4459,1.56441 -0.45036,0.90072 -0.45036,1.84885 0,1.16146 0.63999,2.18069 h 6.80281 q 0.61628,-1.04294 0.61628,-2.18069 0,-0.94813 -0.45036,-1.84885 h -12.61009 z m -13.74784,77.69901 q 0,0 0,0 z m 0,0 q 0,0 0,0 z m 0.7348,-13.416 q 0,0 0,0 z m 0,0 q 0,0 0,0 z m 1.73033,8.2013 q 0,0 0,0 z m 0,0 q 0,0 0,0 z m 4.07695,-48.92335 q 0,0 0,0 z m 0,0 q 0,0 0,0 z m 0.82961,30.24525 q 0,0 0,0 z m 0.0237,0 q 0,0 -0.0237,0 z m 0.35555,-39.98726 q 0,0.85332 0.61628,1.4696 0.59258,0.61628 1.4696,0.61628 0.87702,0 1.4696,-0.61628 0.61628,-0.61628 0.61628,-1.4696 0,-0.85331 -0.61628,-1.46959 -0.59258,-0.61629 -1.4696,-0.61629 -0.87702,0 -1.4696,0.61629 -0.61628,0.61628 -0.61628,1.46959 z m 0.33185,19.72105 q 0,0 0,0 z m 0,0 q 0,0 0,0 z m 2.15698,9.7657 q 0,0 0,0 z m 0,0 q 0,0 0,0 z m 6.44727,-37.45101 q 0,1.09034 0.52147,2.01477 0.54517,0.92442 1.4696,1.46959 0.92442,0.54518 2.03847,0.54518 1.13775,0 2.03847,-0.54518 0.92442,-0.54517 1.44589,-1.46959 0.54518,-0.92443 0.54518,-2.01477 0,-1.09035 -0.54518,-2.01477 -0.52147,-0.92443 -1.44589,-1.4696 -0.92442,-0.54517 -2.03847,-0.54517 -1.11405,0 -2.03847,0.54517 -0.92443,0.54517 -1.4696,1.4696 -0.52147,0.94812 -0.52147,2.01477 z m 13.84265,-44.32494 q 0,0.85332 0.59258,1.4696 0.61628,0.61628 1.4933,0.61628 0.87702,0 1.4696,-0.61628 0.61628,-0.61628 0.61628,-1.4696 0,-0.85331 -0.61628,-1.4696 -0.59258,-0.61628 -1.4696,-0.61628 -0.87702,0 -1.4933,0.61628 -0.59258,0.61629 -0.59258,1.4696 z m 9.97904,-7.60872 q 0,0 0,0 z m 0,0 q 0,0 0,0 z m 4.69323,-8.60425 q 0,0 0,0 z m 0,0 q 0,0 0,0 z m 9.17313,-6.30504 q 0,0 0,0 z m 0,0 q 0,0 0,0 z m 12.46787,1.68292 q 0,0 0,0 z m 0.0237,0 q 0,0 -0.0237,0 z m 6.11542,9.6709 q 0,0 0,0 z m 0,0 q 0,0 0,0 z m 1.06664,9.10201 q 0,0 0,0 z m 0,0 q 0,0 0,0 z m 4.05324,4.95397 q 0,0 0,0 z m 0,0 q 0,0 0,0 z m -12.46787,1.35108 q -5.38062,-1.80144 -10.35829,-1.80144 -3.83991,0 -6.63688,1.23256 -2.79698,1.20887 -4.29028,3.48437 -1.4933,2.2755 -1.4933,5.38062 0,2.72587 1.04294,4.62212 1.06664,1.87255 3.27104,3.10512 2.2281,1.23256 5.83098,1.94366 l 2.91549,0.56887 q 3.65029,0.7348 5.2384,2.2044 1.61182,1.46959 1.61182,4.07694 0,1.4459 -0.54518,2.60735 -0.0474,-0.80591 -0.63998,-1.37478 -0.59258,-0.56888 -1.4459,-0.56888 -0.87701,0 -1.4933,0.61628 -0.59257,0.61629 -0.59257,1.4696 0,0.85332 0.59257,1.4696 0.61629,0.61628 1.4933,0.61628 h 0.0474 q 0.85332,-0.0237 1.4459,-0.61628 0.59257,-0.61628 0.59257,-1.4696 v -0.14222 q -0.63998,1.37479 -2.03847,2.2281 -2.18069,1.37478 -5.9732,1.37478 -0.40295,0 -1.25627,-0.0474 0.45036,-0.90072 0.45036,-1.87255 0,-1.09035 -0.54517,-2.01477 -0.52147,-0.92443 -1.44589,-1.4696 -0.92443,-0.54517 -2.03848,-0.54517 -1.06664,0 -1.99106,0.52147 -0.90072,0.52147 -1.4459,1.42219 -0.54517,0.87702 -0.59258,1.91996 v 0.16592 q 0,1.09034 0.52147,2.01477 0.54518,0.92442 1.4696,1.46959 0.92442,0.54518 2.03847,0.54518 1.18516,0 2.10959,-0.56888 0.94812,-0.59258 1.46959,-1.58811 -3.67399,-0.23703 -7.60872,-2.03847 -1.16145,-0.54518 -2.34661,-1.20887 v 4.93026 q 6.11542,2.25181 11.2116,2.25181 6.66059,0 10.09755,-2.65476 3.46067,-2.65476 3.46067,-7.79834 0,-4.33769 -2.55995,-6.89763 -2.55994,-2.55994 -7.89315,-3.57918 l -2.89179,-0.59258 q -2.32291,-0.42665 -3.7214,-0.97183 -1.37478,-0.56887 -2.08588,-1.37478 -0.68739,-0.80591 -0.87702,-2.01477 0.35555,0.59258 0.92443,0.94813 0.59258,0.33184 1.30367,0.33184 1.06665,0 1.80144,-0.7348 0.75851,-0.7585 0.75851,-1.82514 0,-1.06665 -0.75851,-1.80144 -0.73479,-0.75851 -1.80144,-0.75851 -0.63998,0 -1.18516,0.28444 -0.52147,0.28444 -0.87701,0.7585 -0.49777,0.6874 -0.49777,1.51701 0,0.68739 0.33184,1.27997 -0.0711,-0.54517 -0.0711,-1.11405 0,-0.94813 0.23703,-1.68293 0.59258,-1.99106 2.63105,-3.05771 2.03847,-1.09034 5.28581,-1.09034 2.2518,0 4.66952,0.63998 2.41773,0.63999 5.14359,1.94366 z m -31.00375,100.61998 q 0,0 0,0 z m 0,0 q 0,0 0,0 z m 3.48437,-51.36478 q 0,0 0,0 z m 0,0 q 0,0 0,0 z m 0.37925,-11.70937 q 0,0.85331 0.61628,1.46959 0.59258,0.61629 1.4696,0.61629 0.87701,0 1.46959,-0.61629 0.61629,-0.61628 0.61629,-1.46959 0,-0.85332 -0.61629,-1.4696 -0.59258,-0.61628 -1.46959,-0.61628 -0.87702,0 -1.4696,0.61628 -0.61628,0.61628 -0.61628,1.4696 z m 0.0237,71.91543 q 0,0 0,0 z m 0,0 q 0,0 0,0 z m 0.40295,-20.00548 q 0,0 0,0 z m 0,0 q 0,0 0,0 z m 1.35108,-29.58156 q 0,0 0,0 z m 0,0 q 0,0 0,0 z m 2.55995,53.66399 q 0,0 0,0 z m 0,0 q 0,0 0,0 z m 3.93472,-45.03604 q 0,0 0,0 z m 0,0 q 0,0 0,0 z m 0.23704,11.82789 q 0,0 0,0 z m 0.0237,0 q 0,0 -0.0237,0 z m 2.79697,-86.99065 q 0,1.09034 0.52147,2.01477 0.54518,0.92442 1.4696,1.46959 0.92442,0.54518 2.03847,0.54518 1.13776,0 2.03848,-0.54518 0.92442,-0.54517 1.44589,-1.46959 0.54517,-0.92443 0.54517,-2.01477 0,-1.09035 -0.54517,-2.01477 -0.52147,-0.92443 -1.44589,-1.4696 -0.92443,-0.54517 -2.03848,-0.54517 -1.11405,0 -2.03847,0.54517 -0.92442,0.54517 -1.4696,1.4933 -0.52147,0.92442 -0.52147,1.99107 z m 10.4057,21.6647 q 0,0 0,0 z m 0,0 q 0,0 0,0 z m 1.37478,-31.05116 q 0,0.85331 0.59258,1.4696 0.61628,0.61628 1.4933,0.61628 0.87702,0 1.4696,-0.61628 0.61628,-0.61629 0.61628,-1.4696 0,-0.85331 -0.61628,-1.4696 -0.59258,-0.61628 -1.4696,-0.61628 -0.87702,0 -1.4933,0.61628 -0.59258,0.61629 -0.59258,1.4696 z m 1.96737,35.27032 q 0,0 0,0 z m 0,0 q 0,0 0,0 z m 5.9732,-0.71109 q 0,0 0,0 z m 0,0 q 0,0 0,0 z m 0.8059,-44.58567 q 0,0 0,0 z m 0,0 q 0,0 0,0 z m 1.94366,-32.90001 q 0,0 0,0 z m 0.0237,0 q 0,0 -0.0237,0 z m 0.49776,22.51802 q 0,0 0,0 z m 0,0 q 0,0 0,0 z m 0.75851,-9.76571 q 0,0 0,0 z m 0,0 q 0,0 0,0 z m 1.25626,-24.41427 q 0,0 0,0 z m 0,0 q 0,0 0,0 z m 4.74064,85.75808 q 0,0 0,0 z m 0,0 q 0,0 0,0 z m 1.42219,-93.74605 q 0,0 0,0 z m 0,0 q 0,0 0,0 z m 4.93026,83.26925 q 0,0 0,0 z m 0.0237,0 q 0,0 -0.0237,0 z m 0.42666,-87.03806 q 0,0 0,0 z m 0,0 q 0,0 0,0 z m 9.7183,79.8323 q 0,0 0,0 z m 0,0 q 0,0 0,0 z m 9.74201,-2.01477 q 0,0 0,0 z m 0,0 q 0,0 0,0 z m 6.16282,1.23256 q 0,0 0,0 z m 0,0 q 0,0 0,0 z"
         id="path10" />
      <path
         style="fill:#ffffff"
         d="m 95.371894,317.69626 q -0.616283,-0.6874 -1.56441,-0.6874 -0.877017,0 -1.4933,0.61629 -0.592579,0.61628 -0.592579,1.46959 0,0.85332 0.592579,1.4696 0.616283,0.61628 1.4933,0.61628 0.948127,0 1.56441,-0.68739 0.52147,-0.59258 0.52147,-1.39849 0,-0.8059 -0.52147,-1.39848 v 9.03091 h 4.645826 V 297.1219 l 15.6915,29.60527 h 6.44726 v -35.38884 h -4.64582 v 29.60526 l -15.6915,-29.60526 H 95.371894 Z M 65.5533,404.37877 q 0,0 0,0 z m 0,0 q 0,0 0,0 z m 0.45036,-9.74201 q 0,0 0,0 z m 0,0 q 0,0 0,0 z m 0.07111,16.73444 q 0,0 0,0 z m 0,0 q 0,0 0,0 z m 6.731701,-27.02162 q 0,0 0,0 z m -0.0237,0 q 0,0 0.0237,0 z m 4.4799,-12.01751 q 0,0 0,0 z m 0,0 q 0,0 0,0 z m 7.869454,-8.10648 q 0,0 0,0 z m 0,0 q 0,0 0,0 z m 6.49467,-33.04223 q 0,1.09035 0.52147,2.01477 0.545173,0.92443 1.469597,1.4696 0.924424,0.54517 2.038473,0.54517 1.114049,0 2.038473,-0.54517 0.924424,-0.54517 1.445894,-1.4933 0.545173,-0.92443 0.545173,-1.99107 0,-1.09034 -0.545173,-2.01477 -0.52147,-0.92442 -1.445894,-1.46959 -0.924424,-0.54518 -2.038473,-0.54518 -1.137753,0 -2.062176,0.54518 -0.900721,0.54517 -1.445894,1.46959 -0.52147,0.92443 -0.52147,2.01477 z m 2.156989,25.86017 q 0,0 0,0 z m 0,0 q 0,0 0,0 z m 2.939194,-47.28784 q 0,0 0,0 z m 0,0 q 0,0 0,0 z m 0.0237,-10.28718 q 0,0 0,0 z m 0,0 q 0,0 0,0 z m 0.284438,45.81824 q 0,1.06664 0.734798,1.80144 0.734799,0.7585 1.825145,0.7585 1.090341,0 1.825141,-0.7585 0.7348,-0.7348 0.7348,-1.80144 0,-1.06664 -0.7348,-1.82514 -0.7348,-0.7348 -1.825141,-0.7348 -1.090346,0 -1.825145,0.7348 -0.734798,0.7585 -0.734798,1.82514 z m 8.035374,-50.25073 q 0,0 0,0 z m 0,0 q 0,0 0,0 z m 10.95087,4.97767 q 0,0 0,0 z m -0.0237,0 q 0,0 0.0237,0 z m 12.37305,0.26073 q 0,0 0,0 z m 0,0 q 0,0 0,0 z m 8.41463,-6.54207 q 0,0 0,0 z m 0,0 q 0,0 0,0 z m 3.05771,-6.75541 q 0,0 0,0 z m 0,0 q 0,0 0,0 z m 6.21023,7.60872 q 3.43696,0 5.9969,1.75404 2.55995,1.75403 3.93473,5.02507 1.37478,3.27104 1.37478,7.70353 0,4.40879 -1.37478,7.67983 -1.37478,3.27104 -3.93473,5.02507 -2.55994,1.75404 -5.9969,1.75404 -2.86808,0 -5.14359,-1.20887 -2.2755,-1.23256 -3.7688,-3.53177 -1.4933,-2.32291 -2.08588,-5.54654 0.47406,-0.28444 0.7585,-0.7585 0.28444,-0.47407 0.28444,-1.04294 0,-0.68739 -0.40296,-1.20886 -0.37925,-0.54518 -0.99553,-0.75851 v -0.40295 q 0,-4.43249 1.37478,-7.70353 1.39849,-3.27104 3.95843,-5.02507 2.55995,-1.75404 6.02061,-1.75404 z m -78.338992,50.70109 q 0,0 0,0 z m 0,0 q 0,0 0,0 z m 5.59395,-2.77327 q 0,0 0,0 z m 0,0 q 0,0 0,0 z m 5.665058,1.09035 q 0,0 0,0 z m 0,0 q 0,0 0,0 z m 8.201299,-2.51254 q 0,0 0,0 z m 0,0 q 0,0 0,0 z m 8.912393,-5.90209 q 0,0 0,0 z m 0,0 q 0,0 0,0 z m 5.428032,-4.95396 q 0,0 0,0 z m 0,0 q 0,0 0,0 z m 6.68429,-2.63106 q 0,0 0,0 z m 0,0 q 0,0 0,0 z m 7.37169,0.54518 q 0,0.87701 0.61628,1.46959 0.61628,0.61629 1.4696,0.61629 0.85331,0 1.46959,-0.61629 0.61629,-0.59258 0.61629,-1.46959 0,-0.87702 -0.61629,-1.4696 -0.61628,-0.61628 -1.46959,-0.61628 -0.85332,0 -1.4696,0.61628 -0.61628,0.59258 -0.61628,1.4696 z m 9.33905,-6.75541 q 0,1.11405 0.54517,2.03847 0.54517,0.92443 1.4696,1.4696 0.94813,0.52147 2.01477,0.52147 1.09034,0 2.01477,-0.52147 0.92442,-0.54517 1.4696,-1.4696 0.54517,-0.92442 0.54517,-2.03847 0,-0.30814 -0.0237,-0.45036 2.15699,3.12882 5.49914,4.81175 3.36585,1.65922 7.60872,1.65922 4.93026,0 8.62796,-2.2518 3.69769,-2.25181 5.71246,-6.39986 2.01477,-4.17176 2.01477,-9.6946 0,-5.54654 -2.01477,-9.6946 -2.01477,-4.14805 -5.71246,-6.39986 -3.6977,-2.2755 -8.62796,-2.2755 -4.93026,0 -8.65166,2.2755 -3.69769,2.25181 -5.73617,6.39986 -2.01477,4.14806 -2.01477,9.6946 0,5.09618 1.75404,9.12572 -1.09035,-0.82961 -2.46513,-0.82961 -1.09035,0 -2.01477,0.54517 -0.92443,0.52147 -1.4696,1.4459 -0.54517,0.92442 -0.54517,2.03847 z m 6.49467,-3.19993 q 0.7348,1.58812 1.5407,2.74957 -0.0948,-0.85331 -0.49776,-1.56441 -0.40296,-0.71109 -1.04294,-1.18516 z m 0.52147,-6.7554 q 0,0.87702 0.61628,1.4933 0.61628,0.59258 1.4696,0.59258 0.59258,0 1.04294,-0.28444 -0.30814,-1.73033 -0.35555,-3.76881 -0.35555,-0.11851 -0.68739,-0.11851 -0.85332,0 -1.4696,0.61628 -0.61628,0.59258 -0.61628,1.4696 z m 5.11988,-8.10649 q 0,0 0,0 z m 0,0 q 0,0 0,0 z m 4.93026,-1.91996 q 0,0 0,0 z m 0,0 q 0,0 0,0 z m 3.05771,-5.09618 q 0,0 0,0 z m 0,0 q 0,0 0,0 z m 3.31845,15.31225 q 0,0 0,0 z m 0,0 q 0,0 0,0 z m 3.31844,-4.95396 q 0,0 0,0 z m 0,0 q 0,0 0,0 z m 1.01924,-7.27688 q 0,0 0,0 z m 0,0 q 0,0 0,0 z m 3.57918,7.08725 q 0,0 0,0 z m 0,0 q 0,0 0,0 z m 8.72277,-11.11678 h 7.13465 q 0.49777,0.30814 1.09035,0.30814 0.59258,0 1.09035,-0.30814 0.47406,-0.28444 0.73479,-0.75851 0.26074,-0.47406 0.26074,-1.01923 0,-0.85332 -0.61628,-1.4696 -0.59258,-0.61628 -1.4696,-0.61628 -0.87702,0 -1.4933,0.61628 -0.59258,0.61628 -0.59258,1.4696 0,0.54517 0.26074,1.01923 0.26073,0.47407 0.73479,0.75851 h 5.42803 v 31.3593 h 4.81175 v -29.70008 q 0.68739,-0.0711 1.16145,-0.52147 0.49777,-0.47407 0.61628,-1.13775 0.0474,-0.28444 0.0474,-0.40296 0,-0.85331 -0.61628,-1.4696 -0.59258,-0.61628 -1.4696,-0.61628 -0.87702,0 -1.4933,0.61628 -0.59258,0.61629 -0.59258,1.4696 0,0.85332 0.59258,1.4696 0.61628,0.61628 1.4933,0.61628 0.16592,0 0.26074,-0.0237 v -1.65922 h 12.56268 v -4.02954 h -4.55101 q -0.11852,-0.7111 -0.68739,-1.18516 -0.56888,-0.49777 -1.35108,-0.49777 -0.78221,0 -1.35109,0.49777 -0.56887,0.47406 -0.68739,1.18516 -0.0474,0.28443 -0.0474,0.40295 0,0.85331 0.59258,1.4696 0.61628,0.61628 1.4933,0.61628 0.87701,0 1.46959,-0.61628 0.61628,-0.61629 0.61628,-1.4696 0,-0.11852 -0.0474,-0.40295 h -25.3861 z m -61.13049,12.23083 q 0,0 0,0 z m 0,0 q 0,0 0,0 z m 0.16592,-9.81311 q 0,0 0,0 z m 0,0 q 0,0 0,0 z m 2.06218,17.32702 q 0,0 0,0 z m 0,0 q 0,0 0,0 z m 2.48883,-29.34453 q 0,0 0.0237,0 z m 0.0237,0 q 0,0 0,0 z m 10.97457,-7.56131 q 0,0 0,0 z m 0,0 q 0,0 0,0 z m 10.59531,-1.58812 q 0,0 0,0 z m 0,0 q 0,0 0,0 z m 10.90346,0.94813 q 0,0 0,0 z m 0,0 q 0,0 0,0 z m 6.63689,6.58948 q 0,0.85332 0.61629,1.4696 0.59258,0.61628 1.46959,0.61628 0.87702,0 1.4933,-0.61628 0.59258,-0.61628 0.59258,-1.4696 0,-0.85331 -0.59258,-1.46959 -0.61628,-0.61629 -1.4933,-0.61629 -0.87701,0 -1.46959,0.61629 -0.61629,0.61628 -0.61629,1.46959 z m 8.9361,7.96427 q 0,1.06664 0.54517,2.01477 0.52147,0.92442 1.4459,1.4696 0.92442,0.54517 2.03847,0.54517 1.11405,0 2.03847,-0.54517 0.92443,-0.54518 1.4696,-1.4696 0.52147,-0.92442 0.52147,-2.01477 0,-1.09035 -0.52147,-2.01477 -0.54517,-0.92442 -1.44589,-1.4696 -0.92443,-0.54517 -2.06218,-0.54517 -1.11405,0 -2.03847,0.54517 -0.92443,0.54518 -1.4459,1.4696 -0.54517,0.92442 -0.54517,2.01477 z m 16.78185,18.91513 q 0,0 0,0 z m 0,0 q 0,0 0,0 z m 0.33184,10.31088 q 0,0 0,0 z m 0,0 q 0,0 0,0 z m 5.45173,-18.93883 q 0,0 0,0 z m 0,0 q 0,0 0,0 z m 5.26211,24.60389 q 0,0 0.0237,0 z m 0.0237,0 q 0,0 0,0 z m 10.87976,-3.88732 q 0,0 0,0 z m 0,0 q 0,0 0,0 z m 0.26073,-29.74748 q 0,0.97183 0.47407,1.80144 0.49776,0.82961 1.30367,1.32738 0.82961,0.47406 1.82515,0.47406 0.99553,0 1.82514,-0.47406 0.82961,-0.49777 1.30367,-1.32738 0.47407,-0.82961 0.47407,-1.80144 0,-0.97183 -0.47407,-1.80144 -0.47406,-0.82961 -1.30367,-1.30368 -0.82961,-0.49776 -1.82514,-0.49776 -0.99554,0 -1.82515,0.49776 -0.80591,0.47407 -1.30367,1.30368 -0.47407,0.82961 -0.47407,1.80144 z m 8.98351,34.08516 q 0,0 0,0 z m 0,0 q 0,0 0,0 z m 3.38955,5.9258 q 0,0 0,0 z m 0,0 q 0,0 0,0 z m 0.66369,-34.44072 q 0,0.85332 0.59258,1.4696 0.61628,0.61628 1.4933,0.61628 0.87702,0 1.4696,-0.61628 0.61628,-0.61628 0.61628,-1.4696 0,-0.85331 -0.61628,-1.46959 -0.59258,-0.61628 -1.4696,-0.61628 -0.87702,0 -1.4933,0.61628 -0.59258,0.61628 -0.59258,1.46959 z m 13.32118,-3.91102 q 0,0 0,0 z m 0,0 q 0,0 0,0 z m 6.6606,-8.41463 q 0,0 0,0 z m 0,0 q 0,0 0,0 z m 8.88869,-7.32428 q 0,0 0,0 z m 0,0 q 0,0 0,0 z m 9.31534,-6.39985 q 0,0 0,0 z m 0,0 q 0,0 0,0 z m 11.68567,1.06664 q 0,0 0,0 z m 0,0 q 0,0 0,0 z m 5.66506,9.17313 q 0,0 0,0 z m 0,0 q 0,0 0,0 z m 2.51253,7.44279 q 0,0 0,0 z m 0,0 q 0,0 0,0 z"
         id="path11" />
      <path
         style="fill:#ffffff"
         d="m 78.104131,375.27127 h 22.802459 v -4.02954 H 82.892172 v -12.82342 h 16.852957 v -4.02954 H 82.892172 v -10.4768 h 0.853315 q 0.545173,0.85331 1.42219,1.35108 0.900721,0.49776 1.967364,0.49776 1.090346,0 1.967363,-0.49776 0.900721,-0.49777 1.445894,-1.35108 h 9.931632 v -4.02954 h -9.76571 q -0.497767,-0.99554 -1.445894,-1.58812 -0.948127,-0.59257 -2.133285,-0.59257 -1.161456,0 -2.133286,0.61628 -0.948127,0.59258 -1.445894,1.56441 -0.45036,0.90072 -0.45036,1.84884 0,1.16146 0.639986,2.1807 h 6.802811 q 0.616282,-1.04294 0.616282,-2.1807 0,-0.94812 -0.45036,-1.84884 H 78.104131 Z m -13.747841,77.699 q 0,0 0,0 z m 0,0 q 0,0 0,0 z m 0.734798,-13.41599 q 0,0 0,0 z m 0,0 q 0,0 0,0 z m 1.730332,8.2013 q 0,0 0,0 z m 0,0 q 0,0 0,0 z m 4.076946,-48.92336 q 0,0 0,0 z m 0,0 q 0,0 0,0 z m 0.829611,30.24525 q 0,0 0,0 z m 0.0237,0 q 0,0 -0.0237,0 z m 0.355548,-39.98725 q 0,0.85331 0.616282,1.46959 0.59258,0.61629 1.469597,0.61629 0.877018,0 1.469597,-0.61629 0.616283,-0.61628 0.616283,-1.46959 0,-0.85332 -0.616283,-1.4696 -0.592579,-0.61628 -1.469597,-0.61628 -0.877017,0 -1.469597,0.61628 -0.616282,0.61628 -0.616282,1.4696 z m 0.331844,19.72104 q 0,0 0,0 z m 0,0 q 0,0 0,0 z m 2.156989,9.76571 q 0,0 0,0 z m 0,0 q 0,0 0,0 z m 6.447264,-37.45102 q 0,1.09035 0.52147,2.01477 0.545173,0.92442 1.469596,1.4696 0.924424,0.54517 2.038473,0.54517 1.137753,0 2.038473,-0.54517 0.924424,-0.54518 1.445894,-1.4696 0.545173,-0.92442 0.545173,-2.01477 0,-1.09034 -0.545173,-2.01477 -0.52147,-0.92442 -1.445894,-1.4696 -0.924423,-0.54517 -2.038473,-0.54517 -1.114049,0 -2.038473,0.54517 -0.924423,0.54518 -1.469596,1.4696 -0.52147,0.94813 -0.52147,2.01477 z m 13.842654,-44.32494 q 0,0.85332 0.592579,1.4696 0.616283,0.61628 1.4933,0.61628 0.877018,0 1.469597,-0.61628 0.616282,-0.61628 0.616282,-1.4696 0,-0.85331 -0.616282,-1.46959 -0.592579,-0.61628 -1.469597,-0.61628 -0.877017,0 -1.4933,0.61628 -0.592579,0.61628 -0.592579,1.46959 z m 9.979041,-7.60871 q 0,0 0,0 z m 0,0 q 0,0 0,0 z m 4.69322,-8.60426 q 0,0 0,0 z m 0,0 q 0,0 0,0 z m 9.17313,-6.30504 q 0,0 0,0 z m 0,0 q 0,0 0,0 z m 12.46787,1.68292 q 0,0 0,0 z m 0.0237,0 q 0,0 -0.0237,0 z m 6.11541,9.6709 q 0,0 0,0 z m 0,0 q 0,0 0,0 z m 1.06665,9.10202 q 0,0 0,0 z m 0,0 q 0,0 0,0 z m 4.05324,4.95396 q 0,0 0,0 z m 0,0 q 0,0 0,0 z m -24.36686,16.68704 -11.78048,17.61146 q -0.49777,-1.04294 -1.4696,-1.68293 -0.97183,-0.63999 -2.18069,-0.63999 -1.13775,0 -2.03847,0.54518 -0.924427,0.54517 -1.445897,1.46959 -0.545173,0.92443 -0.545173,2.01477 0,1.09035 0.545173,2.01477 0.52147,0.92443 1.445897,1.4696 0.92442,0.54517 2.03847,0.54517 1.11405,0 2.03847,-0.54517 0.92443,-0.54517 1.4459,-1.4933 0.54517,-0.92442 0.54517,-1.99107 0,-0.28443 -0.0237,-0.42665 -0.0711,-0.6874 -0.35555,-1.27997 l -0.85332,1.27997 h 5.1673 l 2.74956,-4.12436 q 0.54518,0.35555 1.27998,0.35555 1.04294,0 1.75403,-0.71109 0.7348,-0.7348 0.7348,-1.75404 0,-0.59258 -0.28444,-1.13775 -0.26073,-0.54517 -0.7348,-0.87702 -0.61628,-0.47406 -1.46959,-0.47406 -1.04294,0 -1.77774,0.7348 -0.7111,0.7348 -0.7111,1.75403 0,0.66369 0.30814,1.23257 0.33185,0.54517 0.90072,0.87701 l 7.27688,-10.92716 9.95533,15.05152 h 5.14359 l -12.13602,-18.39367 11.37752,-16.99517 h -5.14359 l -8.84128,13.15526 -8.79388,-13.15526 h -5.14359 z m -76.395336,61.08308 q 0,0 0,0 z m 0,0 q 0,0 0,0 z m 6.139122,6.708 q 0,0 0,0 z m 0,0 q 0,0 0,0 z m 10.144959,4.19546 q 0,0 0,0 z m 0,0 q 0,0 0,0 z m 12.159729,-3.0103 q 0,0 0,0 z m -0.0237,0 q 0,0 0.0237,0 z m 9.504973,-7.27688 q 0,0 0,0 z m 0,0 q 0,0 0,0 z m 5.143589,-10.71383 q 0,0 0,0 z m 0,0 q 0,0 0,0 z m 1.706628,-11.25901 q 0,0 0,0 z m 0,0 q 0,0 0,0 z m 1.825145,-12.46787 q 0,1.01923 0.734798,1.73033 0.711095,0.7348 1.754035,0.7348 1.04294,0 1.777738,-0.7348 0.711095,-0.7111 0.711095,-1.73033 0,-1.01924 -0.711095,-1.75404 -0.734798,-0.7348 -1.777738,-0.7348 -1.04294,0 -1.754035,0.7348 -0.734798,0.7348 -0.734798,1.75404 z M 109.9612,337.53581 q 0,0 0,0 z m 0,0 q 0,0 0,0 z m 6.58948,-10.54791 q 0,0 0,0 z m -0.0237,0 q 0,0 0.0237,0 z m 0.16592,20.33732 q 0,0 0,0 z m 0,0 q 0,0 0,0 z m 4.07694,11.47234 q 0,0 0,0 z m 0,0 q 0,0 0,0 z m 7.84576,-34.96218 q 0,0 0,0 z m 0,0 q 0,0 0,0 z m 9.83681,4.76434 q 0,0 0,0 z m 0,0 q 0,0 0,0 z m 7.15836,-4.17176 q 0,0 0,0 z m 0,0 q 0,0 0,0 z m -3.57918,35.91031 q -0.61628,-0.6874 -1.56441,-0.6874 -0.87702,0 -1.4933,0.61629 -0.59258,0.61628 -0.59258,1.46959 0,0.85332 0.59258,1.4696 0.61628,0.61628 1.4933,0.61628 0.94813,0 1.56441,-0.68739 0.52147,-0.59258 0.52147,-1.39849 0,-0.8059 -0.52147,-1.39848 v 14.933 h 4.78804 V 353.8436 q 1.51701,-0.18963 2.51254,-1.32738 1.01924,-1.16146 1.01924,-2.67846 0,-1.54071 -1.01924,-2.67846 -0.99553,-1.16145 -2.51254,-1.32738 -0.16592,-0.0237 -0.49776,-0.0237 -1.11405,0 -2.03848,0.54517 -0.92442,0.54518 -1.46959,1.4696 -0.52147,0.92442 -0.52147,2.01477 0,1.06664 0.52147,2.01477 0.54517,0.92442 1.46959,1.4696 0.92443,0.54517 2.03848,0.54517 0.33184,0 0.49776,-0.0237 v -13.96117 h -4.78804 z m -27.40087,-91.35204 q 0,0 0,0 z m 0,0 q 0,0 0,0 z m 7.06355,-0.52147 q 0,0 0,0 z m 0,0 q 0,0 0,0 z m 6.94503,49.51593 q 0,0 0,0 z m 0,0 q 0,0 0,0 z m 1.20886,9.74201 q 0,0.85331 0.61628,1.4696 0.59258,0.61628 1.4696,0.61628 0.87702,0 1.4933,-0.61628 0.59258,-0.61629 0.59258,-1.4696 0,-0.85332 -0.59258,-1.4696 -0.61628,-0.61628 -1.4933,-0.61628 -0.87702,0 -1.4696,0.61628 -0.61628,0.61628 -0.61628,1.4696 z M 130.18,308.00166 q 0,0 0,0 z m 0,0 q 0,0 0,0 z m 0.30814,-32.87631 q 0,0 0,0 z m 0,0 q 0,0 0,0 z m 3.01031,22.18618 q 0,0 0,0 z m 0,0 q 0,0 0,0 z m 1.18516,-12.30195 q 0,0 0.0237,0 z m 0.0237,0 q 0,0 0,0 z m 3.43696,87.44101 q 0,0 0,0 z m 0,0 q 0,0 0,0 z m 0.63999,-36.76362 q 0,1.06664 0.52147,2.01477 0.54517,0.92442 1.46959,1.46959 0.92443,0.54517 2.03848,0.54517 1.11404,0 2.03847,-0.54517 0.92442,-0.54517 1.44589,-1.46959 0.54518,-0.92443 0.54518,-2.01477 0,-1.09035 -0.54518,-2.01477 -0.52147,-0.92443 -1.44589,-1.4696 -0.90072,-0.54517 -2.03847,-0.54517 -1.11405,0 -2.03848,0.54517 -0.92442,0.54517 -1.46959,1.4696 -0.52147,0.92442 -0.52147,2.01477 z m 3.67399,48.63891 q 0,0 0,0 z m 0,0 q 0,0 0,0 z m 3.83991,42.33387 q 0,0 0,0 z m 0,0 q 0,0 0,0 z m 5.26211,-35.95772 q 0,0 0,0 z m 0,0 q 0,0 0,0 z m 1.91995,34.46442 q 0,0 0,0 z m 0,0 q 0,0 0,0 z m 4.02954,-26.23941 q 0,0 0,0 z m 0,0 q 0,0 0,0 z m 3.57918,19.64993 q 0,0 0,0 z m 0,0 q 0,0 0,0 z m 0.92443,-10.4057 q 0,0 0,0 z m 0,0 q 0,0 0,0 z m 15.54928,-67.12739 q -5.38062,-1.80144 -10.35829,-1.80144 -3.83991,0 -6.63689,1.23257 -2.79697,1.20886 -4.29027,3.48436 -1.4933,2.27551 -1.4933,5.38062 0,2.72587 1.04294,4.62212 1.06664,1.87255 3.27104,3.10512 2.2281,1.23256 5.83098,1.94366 l 2.91549,0.56888 q 3.65029,0.73479 5.2384,2.20439 1.61182,1.4696 1.61182,4.07695 0,1.44589 -0.54518,2.60735 -0.0474,-0.80591 -0.63998,-1.37479 -0.59258,-0.56887 -1.4459,-0.56887 -0.87701,0 -1.4933,0.61628 -0.59257,0.61628 -0.59257,1.46959 0,0.85332 0.59257,1.4696 0.61629,0.61628 1.4933,0.61628 h 0.0474 q 0.85332,-0.0237 1.44589,-0.61628 0.59258,-0.61628 0.59258,-1.4696 v -0.14221 q -0.63998,1.37478 -2.03847,2.22809 -2.18069,1.37479 -5.9732,1.37479 -0.40295,0 -1.25627,-0.0474 0.45036,-0.90072 0.45036,-1.87255 0,-1.09034 -0.54517,-2.01477 -0.52147,-0.92442 -1.44589,-1.4696 -0.92443,-0.54517 -2.03848,-0.54517 -1.06664,0 -1.99106,0.52147 -0.90072,0.52147 -1.4459,1.42219 -0.54517,0.87702 -0.59258,1.91996 v 0.16592 q 0,1.09035 0.52147,2.01477 0.54518,0.92442 1.4696,1.4696 0.92442,0.54517 2.03847,0.54517 1.18516,0 2.10959,-0.56888 0.94812,-0.59257 1.46959,-1.58811 -3.67399,-0.23703 -7.60872,-2.03847 -1.16145,-0.54517 -2.34661,-1.20886 v 4.93026 q 6.11542,2.2518 11.2116,2.2518 6.66059,0 10.09755,-2.65476 3.46067,-2.65475 3.46067,-7.79834 0,-4.33768 -2.55995,-6.89762 -2.55994,-2.55995 -7.89315,-3.57918 l -2.89179,-0.59258 q -2.32291,-0.42666 -3.7214,-0.97183 -1.37478,-0.56888 -2.08588,-1.37479 -0.68739,-0.80591 -0.87702,-2.01477 0.35555,0.59258 0.92443,0.94813 0.59258,0.33184 1.30367,0.33184 1.06665,0 1.80144,-0.73479 0.75851,-0.75851 0.75851,-1.82515 0,-1.06664 -0.75851,-1.80144 -0.73479,-0.7585 -1.80144,-0.7585 -0.63998,0 -1.18516,0.28444 -0.52147,0.28443 -0.87701,0.7585 -0.49777,0.68739 -0.49777,1.517 0,0.68739 0.33184,1.27997 -0.0711,-0.54517 -0.0711,-1.11405 0,-0.94812 0.23704,-1.68292 0.59258,-1.99107 2.63105,-3.05771 2.03847,-1.09035 5.28581,-1.09035 2.2518,0 4.66952,0.63999 2.41773,0.63998 5.14359,1.94366 z M 146.5589,441.66386 q 0,0 0,0 z m 0,0 q 0,0 0,0 z m 3.48437,-51.36478 q 0,0 0,0 z m 0,0 q 0,0 0,0 z m 0.37925,-11.70937 q 0,0.85332 0.61628,1.4696 0.59258,0.61628 1.4696,0.61628 0.87701,0 1.46959,-0.61628 0.61628,-0.61628 0.61628,-1.4696 0,-0.85331 -0.61628,-1.4696 -0.59258,-0.61628 -1.46959,-0.61628 -0.87702,0 -1.4696,0.61628 -0.61628,0.61629 -0.61628,1.4696 z m 0.0237,71.91543 q 0,0 0,0 z m 0,0 q 0,0 0,0 z m 0.40295,-20.00548 q 0,0 0,0 z m 0,0 q 0,0 0,0 z m 1.35108,-29.58156 q 0,0 0,0 z m 0,0 q 0,0 0,0 z m 2.55995,53.66399 q 0,0 0,0 z m 0,0 q 0,0 0,0 z m 3.93472,-45.03603 q 0,0 0,0 z m 0,0 q 0,0 0,0 z m 0.23704,11.82788 q 0,0 0,0 z m 0.0237,0 q 0,0 -0.0237,0 z m 2.79697,-86.99065 q 0,1.09035 0.52147,2.01477 0.54518,0.92442 1.4696,1.4696 0.92442,0.54517 2.03847,0.54517 1.13776,0 2.03848,-0.54517 0.92442,-0.54518 1.44589,-1.4696 0.54517,-0.92442 0.54517,-2.01477 0,-1.09035 -0.54517,-2.01477 -0.52147,-0.92442 -1.44589,-1.4696 -0.92443,-0.54517 -2.03848,-0.54517 -1.11405,0 -2.03847,0.54517 -0.92442,0.54518 -1.4696,1.4933 -0.52147,0.92443 -0.52147,1.99107 z m 10.4057,21.6647 q 0,0 0,0 z m 0,0 q 0,0 0,0 z m 1.37478,-31.05116 q 0,0.85332 0.59258,1.4696 0.61628,0.61628 1.4933,0.61628 0.87702,0 1.4696,-0.61628 0.61628,-0.61628 0.61628,-1.4696 0,-0.85331 -0.61628,-1.46959 -0.59258,-0.61629 -1.4696,-0.61629 -0.87702,0 -1.4933,0.61629 -0.59258,0.61628 -0.59258,1.46959 z m 1.96736,35.27033 q 0,0 0,0 z m 0,0 q 0,0 0,0 z m 5.9732,-0.7111 q 0,0 0,0 z m 0,0 q 0,0 0,0 z m 0.80591,-44.58567 q 0,0 0,0 z m 0,0 q 0,0 0,0 z m 1.94366,-32.90001 q 0,0 0,0 z m 0.0237,0 q 0,0 -0.0237,0 z m 0.49776,22.51802 q 0,0 0,0 z m 0,0 q 0,0 0,0 z m 0.7585,-9.76571 q 0,0 0,0 z m 0,0 q 0,0 0,0 z m 1.25627,-24.41427 q 0,0 0,0 z m 0,0 q 0,0 0,0 z m 4.74064,85.75809 q 0,0 0,0 z m 0,0 q 0,0 0,0 z m 1.42219,-93.74606 q 0,0 0,0 z m 0,0 q 0,0 0,0 z m 4.93026,83.26925 q 0,0 0,0 z m 0.0237,0 q 0,0 -0.0237,0 z m 0.42666,-87.03805 q 0,0 0,0 z m 0,0 q 0,0 0,0 z m 9.7183,79.83229 q 0,0 0,0 z m 0,0 q 0,0 0,0 z m 9.74201,-2.01477 q 0,0 0,0 z m 0,0 q 0,0 0,0 z m 6.16282,1.23257 q 0,0 0,0 z m 0,0 q 0,0 0,0 z m -41.67018,6.21023 h 7.13465 q 0.49777,0.30814 1.09035,0.30814 0.59258,0 1.09035,-0.30814 0.47406,-0.28444 0.73479,-0.7585 0.26074,-0.47407 0.26074,-1.01924 0,-0.85332 -0.61628,-1.4696 -0.59258,-0.61628 -1.4696,-0.61628 -0.87702,0 -1.4933,0.61628 -0.59258,0.61628 -0.59258,1.4696 0,0.54517 0.26073,1.01924 0.26074,0.47406 0.7348,0.7585 h 5.42803 v 31.3593 h 4.81174 v -29.70008 q 0.6874,-0.0711 1.16146,-0.52147 0.49777,-0.47406 0.61628,-1.13775 0.0474,-0.28444 0.0474,-0.40296 0,-0.85331 -0.61628,-1.46959 -0.59258,-0.61629 -1.4696,-0.61629 -0.87702,0 -1.4933,0.61629 -0.59258,0.61628 -0.59258,1.46959 0,0.85332 0.59258,1.4696 0.61628,0.61628 1.4933,0.61628 0.16592,0 0.26073,-0.0237 v -1.65922 h 12.56269 v -4.02954 h -4.55101 q -0.11852,-0.7111 -0.68739,-1.18516 -0.56888,-0.49777 -1.35109,-0.49777 -0.7822,0 -1.35108,0.49777 -0.56887,0.47406 -0.68739,1.18516 -0.0474,0.28444 -0.0474,0.40295 0,0.85332 0.59257,1.4696 0.61629,0.61628 1.4933,0.61628 0.87702,0 1.4696,-0.61628 0.61628,-0.61628 0.61628,-1.4696 0,-0.11851 -0.0474,-0.40295 h -25.3861 z m -61.13049,12.23083 q 0,0 0,0 z m 0,0 q 0,0 0,0 z m 0.16592,-9.81311 q 0,0 0,0 z m 0,0 q 0,0 0,0 z m 2.06218,17.32702 q 0,0 0,0 z m 0,0 q 0,0 0,0 z m 2.48883,-29.34453 q 0,0 0.0237,0 z m 0.0237,0 q 0,0 0,0 z m 10.97457,-7.56131 q 0,0 0,0 z m 0,0 q 0,0 0,0 z m 10.59531,-1.58811 q 0,0 0,0 z m 0,0 q 0,0 0,0 z m 10.90346,0.94812 q 0,0 0,0 z m 0,0 q 0,0 0,0 z m 6.63689,6.58949 q 0,0.85331 0.61629,1.46959 0.59258,0.61628 1.46959,0.61628 0.87702,0 1.4933,-0.61628 0.59258,-0.61628 0.59258,-1.46959 0,-0.85332 -0.59258,-1.4696 -0.61628,-0.61628 -1.4933,-0.61628 -0.87701,0 -1.46959,0.61628 -0.61629,0.61628 -0.61629,1.4696 z m 8.9361,7.96426 q 0,1.06664 0.54517,2.01477 0.52147,0.92443 1.4459,1.4696 0.92442,0.54517 2.03847,0.54517 1.11405,0 2.03847,-0.54517 0.92443,-0.54517 1.4696,-1.4696 0.52147,-0.92442 0.52147,-2.01477 0,-1.09034 -0.52147,-2.01477 -0.54517,-0.92442 -1.44589,-1.46959 -0.92443,-0.54518 -2.06218,-0.54518 -1.11405,0 -2.03847,0.54518 -0.92443,0.54517 -1.4459,1.46959 -0.54517,0.92443 -0.54517,2.01477 z m 16.78185,18.91514 q 0,0 0,0 z m 0,0 q 0,0 0,0 z m 0.33184,10.31088 q 0,0 0,0 z m 0,0 q 0,0 0,0 z m 5.45173,-18.93884 q 0,0 0,0 z m 0,0 q 0,0 0,0 z m 5.26211,24.6039 q 0,0 0.0237,0 z m 0.0237,0 q 0,0 0,0 z m 10.87976,-3.88733 q 0,0 0,0 z m 0,0 q 0,0 0,0 z m 0.26073,-29.74748 q 0,0.97183 0.47407,1.80144 0.49776,0.82961 1.30367,1.32738 0.82961,0.47406 1.82515,0.47406 0.99553,0 1.82514,-0.47406 0.82961,-0.49777 1.30367,-1.32738 0.47407,-0.82961 0.47407,-1.80144 0,-0.97183 -0.47407,-1.80144 -0.47406,-0.82961 -1.30367,-1.30368 -0.82961,-0.49776 -1.82514,-0.49776 -0.99554,0 -1.82515,0.49776 -0.80591,0.47407 -1.30367,1.30368 -0.47407,0.82961 -0.47407,1.80144 z m 8.98351,34.08517 q 0,0 0,0 z m 0,0 q 0,0 0,0 z m 3.38955,5.92579 q 0,0 0,0 z m 0,0 q 0,0 0,0 z m 0.66369,-34.44071 q 0,0.85331 0.59258,1.46959 0.61628,0.61629 1.4933,0.61629 0.87702,0 1.46959,-0.61629 0.61629,-0.61628 0.61629,-1.46959 0,-0.85332 -0.61629,-1.4696 -0.59257,-0.61628 -1.46959,-0.61628 -0.87702,0 -1.4933,0.61628 -0.59258,0.61628 -0.59258,1.4696 z m 13.32118,-3.91103 q 0,0 0,0 z m 0,0 q 0,0 0,0 z m 6.66059,-8.41462 q 0,0 0,0 z m 0,0 q 0,0 0,0 z m 8.8887,-7.32429 q 0,0 0,0 z m 0,0 q 0,0 0,0 z m 9.31534,-6.39985 q 0,0 0,0 z m 0,0 q 0,0 0,0 z m 11.68567,1.06664 q 0,0 0,0 z m 0,0 q 0,0 0,0 z m 5.66506,9.17313 q 0,0 0,0 z m 0,0 q 0,0 0,0 z m 2.51253,7.4428 q 0,0 0,0 z m 0,0 q 0,0 0,0 z"
         id="path12" />
    </g>
  </g>
</svg>
